#N canvas 362 521 707 365 12;
#X obj 522 118 symbol \$1;
#X obj 522 97 loadbang;
#X listbox 522 139 20 0 0 0 - - - 0;
#X obj 498 97 bng 19 250 50 0 empty empty empty 0 -10 0 12 #fcfcfc #000000 #000000;
#X obj 47 243 ambiSpeaker \$0 1;
#X obj 173 243 ambiSpeaker \$0 2;
#X obj 300 243 ambiSpeaker \$0 3;
#X obj 427 243 ambiSpeaker \$0 4;
#X obj 413 87 loadbang;
#X floatatom 413 129 5 0 0 0 - - - 0;
#X obj 393 87 bng 16 250 50 0 empty empty empty 0 -8 0 10 #fcfcfc #000000 #000000;
#X obj 353 51 r chanConfig, f 4;
#X floatatom 353 120 5 0 0 0 - - - 0;
#X obj 378 154 ==;
#X obj 378 175 tgl 16 0 empty empty empty 0 -8 0 10 #fcfcfc #000000 #000000 0 1;
#X obj 378 196 switch~;
#X obj 413 108 \$2;
#X obj 47 268 ambiSpeaker \$0 5;
#X obj 173 268 ambiSpeaker \$0 6;
#X obj 300 268 ambiSpeaker \$0 7;
#X obj 427 268 ambiSpeaker \$0 8;
#X obj 47 293 ambiSpeaker \$0 9;
#X obj 173 293 ambiSpeaker \$0 10;
#X obj 300 293 ambiSpeaker \$0 11;
#X obj 427 293 ambiSpeaker \$0 12;
#X obj 47 318 ambiSpeaker \$0 13;
#X obj 173 318 ambiSpeaker \$0 14;
#X obj 300 318 ambiSpeaker \$0 15;
#X obj 427 318 ambiSpeaker \$0 16;
#X text 188 197 turn on/off with switcher;
#X text 196 7 \$1 = coefficient file name \, \$2 = num speakers;
#N canvas 235 280 1125 844 coefLoader 1;
#X floatatom 230 351 5 0 0 0 - - - 0;
#X obj 108 264 t b b b, f 37;
#X obj 110 382 until;
#X obj 109 357 f;
#X obj 109 316 t b b, f 12;
#X msg 167 388 0;
#X obj 143 423 + 1;
#X obj 106 422 f;
#X obj 147 780 send;
#X obj 258 542 int;
#X floatatom 258 494 5 0 0 0 - - - 0;
#X obj 106 467 t f f f, f 22;
#X msg 234 691 set \$2-speaker-\$1;
#X obj 224 655 t b l;
#X msg 212 715 1020-speaker-8;
#X obj 111 214 bng 19 250 50 0 empty empty empty 0 -10 0 12 #fcfcfc #000000 #000000;
#X obj 212 739 symbol;
#X obj 367 421 text define \$1;
#X obj 173 557 text get \$1, f 6;
#X obj 230 327 text size \$1;
#X obj 258 566 + 1;
#X obj 208 145 s \$0-coefLoad;
#X obj 163 189 r \$0-coefLoad;
#N canvas 310 826 974 298 assign 0;
#X obj 107 40 inlet;
#X msg 104 119 W;
#X obj 140 198 outlet;
#X msg 265 119 V;
#X msg 303 119 T;
#X msg 346 119 R;
#X msg 388 118 S;
#X msg 428 119 U;
#X obj 107 64 sel 0 1 2 3 4 5 6 7 8 9 10 11 12 13 14 15, f 93;
#X msg 471 119 Q;
#X msg 513 119 O;
#X msg 550 117 M;
#X msg 590 115 K;
#X msg 633 114 L;
#X msg 677 112 N;
#X msg 715 113 P;
#X msg 142 119 Y;
#X msg 185 119 Z;
#X msg 227 118 X;
#X connect 0 0 8 0;
#X connect 1 0 2 0;
#X connect 3 0 2 0;
#X connect 4 0 2 0;
#X connect 5 0 2 0;
#X connect 6 0 2 0;
#X connect 7 0 2 0;
#X connect 8 0 1 0;
#X connect 8 1 16 0;
#X connect 8 2 17 0;
#X connect 8 3 18 0;
#X connect 8 4 3 0;
#X connect 8 5 4 0;
#X connect 8 6 5 0;
#X connect 8 7 6 0;
#X connect 8 8 7 0;
#X connect 8 9 9 0;
#X connect 8 10 10 0;
#X connect 8 11 11 0;
#X connect 8 12 12 0;
#X connect 8 13 13 0;
#X connect 8 14 14 0;
#X connect 8 15 15 0;
#X connect 9 0 2 0;
#X connect 10 0 2 0;
#X connect 11 0 2 0;
#X connect 12 0 2 0;
#X connect 13 0 2 0;
#X connect 14 0 2 0;
#X connect 15 0 2 0;
#X connect 16 0 2 0;
#X connect 17 0 2 0;
#X connect 18 0 2 0;
#X restore 35 586 pd assign;
#X obj 68 648 pack s f;
#X text 492 604 set my local ID;
#X text 313 619 \$1 = speaker # \, \$2 = ID;
#X obj 259 26 r ambiOrder;
#X obj 260 80 t b f;
#X obj 344 141 s \$0-setAmbi;
#X obj 76 526 r \$0-setAmbi;
#X obj 289 466 r \$0-setAmbi;
#X obj 37 554 mod;
#X obj 258 518 /;
#X msg 365 314 \$1OA;
#X obj 442 277 loadbang;
#X obj 442 301 symbol \$1;
#X obj 509 276 bng 19 250 50 0 empty empty empty 0 -10 0 12 #fcfcfc #000000 #000000;
#X floatatom 91 551 5 0 0 0 - - - 0;
#N canvas 150 150 450 300 sel 0;
#X obj 127 62 inlet;
#X msg 123 136 4;
#X msg 159 136 9;
#X msg 197 136 16;
#X obj 147 195 outlet;
#X obj 127 86 sel 1 2 3 0;
#X msg 235 137 1;
#X connect 0 0 5 0;
#X connect 1 0 4 0;
#X connect 2 0 4 0;
#X connect 3 0 4 0;
#X connect 5 0 1 0;
#X connect 5 1 2 0;
#X connect 5 2 3 0;
#X connect 5 3 6 0;
#X connect 6 0 4 0;
#X restore 310 113 pd sel;
#X obj 451 136 s \$0-ambiOrder;
#X obj 381 204 r \$0-ambiOrder;
#X floatatom 566 222 5 0 0 0 - - - 0;
#X obj 566 245 sel 0 1;
#X msg 568 278 N3D;
#X msg 612 279 SN3D;
#X obj 239 617 pack f \$0;
#X listbox 406 366 20 0 0 0 - - - 0;
#X obj 366 340 pack s s s;
#X obj 594 34 r ambiNorm;
#X obj 594 84 t b f;
#X obj 627 108 s \$0-ambiNorm;
#X obj 567 198 r \$0-ambiNorm;
#X obj 590 131 s \$0-coefLoad;
#X msg 412 512 dir;
#X obj 412 533 pdcontrol;
#X listbox 412 554 97 0 0 0 - - - 0;
#X obj 411 480 loadbang;
#X msg 367 397 read ../ambiCoefficients/\$1_\$2_\$3.txt;
#X obj 571 305 symbol;
#X obj 636 251 loadbang;
#X obj 364 290 f 3;
#X connect 1 0 4 0;
#X connect 1 1 19 0;
#X connect 1 2 61 0;
#X connect 2 0 7 0;
#X connect 3 0 2 0;
#X connect 4 0 3 0;
#X connect 4 1 5 0;
#X connect 5 0 7 1;
#X connect 6 0 7 1;
#X connect 7 0 6 0;
#X connect 7 0 11 0;
#X connect 9 0 20 0;
#X connect 10 0 33 0;
#X connect 11 0 32 0;
#X connect 11 1 18 0;
#X connect 11 2 10 0;
#X connect 12 0 14 0;
#X connect 13 0 14 0;
#X connect 13 1 12 0;
#X connect 14 0 16 0;
#X connect 15 0 1 0;
#X connect 16 0 8 1;
#X connect 18 0 24 1;
#X connect 19 0 0 0;
#X connect 19 0 3 1;
#X connect 20 0 46 0;
#X connect 22 0 1 0;
#X connect 23 0 24 0;
#X connect 24 0 8 0;
#X connect 27 0 28 0;
#X connect 28 0 21 0;
#X connect 28 1 39 0;
#X connect 28 1 40 0;
#X connect 30 0 32 1;
#X connect 30 0 38 0;
#X connect 31 0 33 1;
#X connect 32 0 23 0;
#X connect 33 0 9 0;
#X connect 34 0 48 0;
#X connect 35 0 36 0;
#X connect 36 0 48 1;
#X connect 37 0 36 0;
#X connect 39 0 29 0;
#X connect 41 0 61 1;
#X connect 42 0 43 0;
#X connect 43 0 44 0;
#X connect 43 1 45 0;
#X connect 44 0 59 0;
#X connect 45 0 59 0;
#X connect 46 0 13 0;
#X connect 48 0 58 0;
#X connect 48 0 47 0;
#X connect 49 0 50 0;
#X connect 50 0 53 0;
#X connect 50 1 51 0;
#X connect 52 0 42 0;
#X connect 54 0 55 0;
#X connect 55 0 56 0;
#X connect 57 0 54 0;
#X connect 58 0 17 0;
#X connect 59 0 48 2;
#X connect 60 0 45 0;
#X connect 61 0 34 0;
#X restore 48 196 pd coefLoader;
#X connect 0 0 2 0;
#X connect 1 0 0 0;
#X connect 3 0 0 0;
#X connect 8 0 16 0;
#X connect 9 0 13 1;
#X connect 10 0 16 0;
#X connect 11 0 12 0;
#X connect 12 0 13 0;
#X connect 13 0 14 0;
#X connect 14 0 15 0;
#X connect 16 0 9 0;
