#N canvas 155 533 643 526 12;
#X obj 107 260 inlet~;
#X obj 110 434 outlet~;
#X obj 111 369 *~;
#X obj 474 316 r 1divSqrt5;
#X obj 440 276 r 1divSqrt3;
#X obj 499 359 r 1divSqrt7;
#X obj 350 355 f;
#X obj 387 379 f;
#X obj 424 422 f;
#X obj 330 264 sel 0 1 2 3;
#X msg 309 329 1;
#X obj 336 174 inlet;
#X floatatom 331 239 5 0 0 0 - - - 0;
#X text 374 237 <<ambisonic order;
#X floatatom 209 38 5 0 0 0 - - - 0;
#X obj 209 14 r ambiNorm;
#X obj 213 116 sel 0 1;
#X msg 190 260 1;
#X floatatom 168 337 5 0 0 0 - - - 0;
#X text 290 99 N3D vs SN3D option;
#X connect 0 0 2 0;
#X connect 2 0 1 0;
#X connect 3 0 7 1;
#X connect 4 0 6 1;
#X connect 5 0 8 1;
#X connect 6 0 18 0;
#X connect 7 0 18 0;
#X connect 8 0 18 0;
#X connect 9 0 10 0;
#X connect 9 1 6 0;
#X connect 9 2 7 0;
#X connect 9 3 8 0;
#X connect 10 0 18 0;
#X connect 11 0 12 0;
#X connect 12 0 9 0;
#X connect 14 0 16 0;
#X connect 15 0 14 0;
#X connect 16 0 17 0;
#X connect 16 1 12 0;
#X connect 17 0 18 0;
#X connect 18 0 2 1;
