#N canvas 902 528 759 516 12;
#X obj 46 58 ambiCoefAdder \$1 \$2 W;
#X text 49 18 \$1 = unique parent # \, \$2 = speaker #;
#X obj 71 82 ambiCoefAdder \$1 \$2 X;
#X obj 97 106 ambiCoefAdder \$1 \$2 Y;
#X obj 122 130 ambiCoefAdder \$1 \$2 Z;
#X obj 84 306 +~;
#X obj 84 330 throw~ speaker\$2;
#X obj 555 110 loadbang;
#X floatatom 557 158 5 0 0 0 - - - 0;
#X obj 621 111 bng 16 250 50 0 empty empty empty 0 -8 0 10 #fcfcfc #000000 #000000;
#X obj 501 97 r chanConfig, f 5;
#X floatatom 502 156 5 0 0 0 - - - 0;
#X obj 501 218 tgl 16 0 empty empty empty 0 -8 0 10 #fcfcfc #000000 #000000 0 1;
#X obj 501 239 switch~;
#X obj 555 132 \$2;
#X obj 501 197 >=;
#X text 500 73 is this speaker in use?;
#X obj 175 160 ambiCoefAdder \$1 \$2 V;
#X obj 200 184 ambiCoefAdder \$1 \$2 T;
#X obj 226 208 ambiCoefAdder \$1 \$2 R;
#X obj 251 232 ambiCoefAdder \$1 \$2 S;
#X obj 273 260 ambiCoefAdder \$1 \$2 U;
#X connect 0 0 5 0;
#X connect 2 0 5 0;
#X connect 3 0 5 0;
#X connect 4 0 5 0;
#X connect 5 0 6 0;
#X connect 7 0 14 0;
#X connect 8 0 15 1;
#X connect 9 0 14 0;
#X connect 10 0 11 0;
#X connect 11 0 15 0;
#X connect 12 0 13 0;
#X connect 14 0 8 0;
#X connect 15 0 12 0;
#X connect 17 0 5 0;
#X connect 18 0 5 0;
#X connect 19 0 5 0;
#X connect 20 0 5 0;
#X connect 21 0 5 0;
