#N canvas 1011 351 532 570 10;
#X obj 26 226 inlet~;
#X obj 131 61 inlet;
#X obj 304 61 inlet;
#X text 26 202 signal;
#X text 34 547 W;
#X text 135 544 X;
#X text 242 544 Y;
#X text 324 544 Z;
#X obj 134 179 cos;
#X obj 173 179 sin;
#X obj 307 179 cos;
#X obj 336 179 sin;
#X obj 323 434 *~;
#X obj 135 438 *~;
#X obj 242 438 *~;
#X text 131 37 azimuth (theta θ);
#X text 304 37 elevation (phi φ);
#X obj 257 338 *;
#X obj 141 336 *;
#X obj 270 283 t b f;
#X obj 159 304 t b f;
#X obj 141 381 *;
#X obj 257 377 *;
#X obj 334 381 *;
#X obj 324 519 throw~ Z;
#X obj 242 519 throw~ Y;
#X obj 135 519 throw~ X;
#X obj 34 522 throw~ W;
#X obj 363 347 r sqrt3;
#X obj 323 482 *~;
#X obj 242 486 *~;
#X obj 135 486 *~;
#X obj 35 486 *~;
#X text 172 60 0-2π;
#X text 342 60 0-1π;
#X obj 368 439 r 1divsqrt3;
#X text 415 345 from mixer.pd;
#X text 444 438 from mixer.pd;
#X connect 0 0 12 0;
#X connect 0 0 14 0;
#X connect 0 0 13 0;
#X connect 0 0 32 0;
#X connect 1 0 8 0;
#X connect 1 0 9 0;
#X connect 2 0 10 0;
#X connect 2 0 11 0;
#X connect 8 0 18 0;
#X connect 9 0 17 0;
#X connect 10 0 19 0;
#X connect 10 0 20 0;
#X connect 11 0 23 0;
#X connect 12 0 29 0;
#X connect 13 0 31 0;
#X connect 14 0 30 0;
#X connect 17 0 22 0;
#X connect 18 0 21 0;
#X connect 19 0 17 0;
#X connect 19 1 17 1;
#X connect 20 0 18 0;
#X connect 20 1 18 1;
#X connect 21 0 13 1;
#X connect 22 0 14 1;
#X connect 23 0 12 1;
#X connect 28 0 23 1;
#X connect 28 0 22 1;
#X connect 28 0 21 1;
#X connect 29 0 24 0;
#X connect 30 0 25 0;
#X connect 31 0 26 0;
#X connect 32 0 27 0;
#X connect 35 0 29 1;
#X connect 35 0 30 1;
#X connect 35 0 31 1;
#X connect 35 0 32 1;
