#N canvas 902 528 759 516 12;
#X text 49 18 \$1 = unique parent # \, \$2 = speaker #;
#X obj 555 110 loadbang;
#X floatatom 557 158 5 0 0 0 - - - 0;
#X obj 621 111 bng 16 250 50 0 empty empty empty 0 -8 0 10 #fcfcfc #000000 #000000;
#X obj 501 97 r chanConfig, f 5;
#X floatatom 502 156 5 0 0 0 - - - 0;
#X obj 501 218 tgl 16 0 empty empty empty 0 -8 0 10 #fcfcfc #000000 #000000 0 1;
#X obj 501 239 switch~;
#X obj 555 132 \$2;
#X obj 501 197 >=;
#X text 500 73 is this speaker in use?;
#X obj 91 285 +~;
#X obj 91 309 throw~ speaker\$2;
#N canvas 282 501 637 534 3OA 0;
#X obj 244 99 ambiCoefAdder \$1 \$2 Q;
#X obj 269 123 ambiCoefAdder \$1 \$2 O;
#X obj 295 147 ambiCoefAdder \$1 \$2 M;
#X obj 320 171 ambiCoefAdder \$1 \$2 K;
#X obj 342 199 ambiCoefAdder \$1 \$2 L;
#X obj 366 227 ambiCoefAdder \$1 \$2 N;
#X obj 388 255 ambiCoefAdder \$1 \$2 P;
#X obj 55 37 r ambiOrder;
#X obj 55 61 >= 3;
#X obj 55 90 switch~;
#X obj 98 59 tgl 19 0 empty empty empty 0 -10 0 12 #fcfcfc #000000 #000000 0 1;
#X obj 179 339 outlet~;
#X connect 0 0 11 0;
#X connect 1 0 11 0;
#X connect 2 0 11 0;
#X connect 3 0 11 0;
#X connect 4 0 11 0;
#X connect 5 0 11 0;
#X connect 6 0 11 0;
#X connect 7 0 8 0;
#X connect 8 0 10 0;
#X connect 8 0 9 0;
#X restore 203 230 pd 3OA;
#N canvas 282 501 637 534 2OA 0;
#X obj 55 37 r ambiOrder;
#X obj 55 90 switch~;
#X obj 98 59 tgl 19 0 empty empty empty 0 -10 0 12 #fcfcfc #000000 #000000 0 1;
#X obj 179 339 outlet~;
#X obj 55 61 >= 2;
#X obj 151 168 ambiCoefAdder \$1 \$2 V;
#X obj 176 192 ambiCoefAdder \$1 \$2 T;
#X obj 202 216 ambiCoefAdder \$1 \$2 R;
#X obj 227 240 ambiCoefAdder \$1 \$2 S;
#X obj 249 268 ambiCoefAdder \$1 \$2 U;
#X connect 0 0 4 0;
#X connect 4 0 2 0;
#X connect 4 0 1 0;
#X connect 5 0 3 0;
#X connect 6 0 3 0;
#X connect 7 0 3 0;
#X connect 8 0 3 0;
#X connect 9 0 3 0;
#X restore 185 187 pd 2OA;
#N canvas 66 558 637 534 1OA 0;
#X obj 55 37 r ambiOrder;
#X obj 55 90 switch~;
#X obj 98 59 tgl 19 0 empty empty empty 0 -10 0 12 #fcfcfc #000000 #000000 0 1;
#X obj 179 339 outlet~;
#X obj 241 275 ambiCoefAdder \$1 \$2 X;
#X obj 207 228 ambiCoefAdder \$1 \$2 Y;
#X obj 230 252 ambiCoefAdder \$1 \$2 Z;
#X obj 55 61 >= 1;
#X connect 0 0 7 0;
#X connect 4 0 3 0;
#X connect 5 0 3 0;
#X connect 6 0 3 0;
#X connect 7 0 2 0;
#X connect 7 0 1 0;
#X restore 160 136 pd 1OA;
#X obj 101 96 ambiCoefAdder \$1 \$2 W;
#X connect 1 0 8 0;
#X connect 2 0 9 1;
#X connect 3 0 8 0;
#X connect 4 0 5 0;
#X connect 5 0 9 0;
#X connect 6 0 7 0;
#X connect 8 0 2 0;
#X connect 9 0 6 0;
#X connect 11 0 12 0;
#X connect 13 0 11 0;
#X connect 14 0 11 0;
#X connect 15 0 11 0;
#X connect 16 0 11 0;
