#N canvas 594 305 707 365 12;
#X obj 522 118 symbol \$1;
#X obj 522 97 loadbang;
#X listbox 522 139 20 0 0 0 - - - 0;
#X obj 498 97 bng 19 250 50 0 empty empty empty 0 -10 0 12 #fcfcfc #000000 #000000;
#N canvas 951 350 762 715 coefLoader 0;
#X msg 418 237 read ../ambiCoefficients/Stereo.txt;
#X floatatom 287 189 5 0 0 0 - - - 0;
#X obj 162 106 t b b b, f 37;
#X obj 164 224 until;
#X obj 163 199 f;
#X obj 163 158 t b b, f 12;
#X msg 221 230 0;
#X obj 197 265 + 1;
#X obj 160 264 f;
#X obj 201 622 send;
#X obj 312 384 int;
#X floatatom 312 336 5 0 0 0 - - - 0;
#X obj 160 309 t f f f, f 22;
#X obj 293 459 pack f f;
#X msg 288 533 set \$2-speaker-\$1;
#X obj 375 339 loadbang;
#X obj 375 410 \$0;
#X obj 278 497 t b l;
#X msg 266 557 1181-speaker-2;
#X obj 160 75 bng 19 250 50 0 empty empty empty 0 -10 0 12 #fcfcfc #000000 #000000;
#X obj 266 581 symbol;
#X obj 418 266 text define \$1;
#X obj 461 165 symbol \$1;
#X obj 416 139 t b b;
#X obj 178 371 text get \$1;
#X obj 287 160 text size \$1;
#X obj 312 408 + 1;
#X obj 375 363 t b b;
#X obj 414 416 s \$0-coefLoad;
#X obj 192 73 r \$0-coefLoad;
#X obj 122 490 pack s f;
#X msg 461 201 set read ../ambiCoefficients/\$1.txt;
#X text 203 50 from below;
#X obj 115 370 mod 9;
#X obj 312 360 / 9;
#X text 320 31 1) load coefficients to memory \, 2) send to corresponding speaker (format: chan (WXYZ...) \, coefficient);
#N canvas 658 603 627 300 assign 0;
#X obj 107 40 inlet;
#X msg 104 119 W;
#X obj 140 198 outlet;
#X msg 265 119 V;
#X msg 303 119 T;
#X msg 346 119 R;
#X msg 388 118 S;
#X msg 428 119 U;
#X obj 107 64 sel 0 1 2 3 4 5 6 7 8, f 52;
#X msg 142 119 Y;
#X msg 185 119 Z;
#X msg 227 118 X;
#X connect 0 0 8 0;
#X connect 1 0 2 0;
#X connect 3 0 2 0;
#X connect 4 0 2 0;
#X connect 5 0 2 0;
#X connect 6 0 2 0;
#X connect 7 0 2 0;
#X connect 8 0 1 0;
#X connect 8 1 9 0;
#X connect 8 2 10 0;
#X connect 8 3 11 0;
#X connect 8 4 3 0;
#X connect 8 5 4 0;
#X connect 8 6 5 0;
#X connect 8 7 6 0;
#X connect 8 8 7 0;
#X connect 9 0 2 0;
#X connect 10 0 2 0;
#X connect 11 0 2 0;
#X restore 59 431 pd assign;
#X connect 0 0 21 0;
#X connect 2 0 5 0;
#X connect 2 1 25 0;
#X connect 2 2 23 0;
#X connect 3 0 8 0;
#X connect 4 0 3 0;
#X connect 5 0 4 0;
#X connect 5 1 6 0;
#X connect 6 0 8 1;
#X connect 7 0 8 1;
#X connect 8 0 7 0;
#X connect 8 0 12 0;
#X connect 10 0 26 0;
#X connect 11 0 34 0;
#X connect 12 0 33 0;
#X connect 12 1 24 0;
#X connect 12 2 11 0;
#X connect 13 0 17 0;
#X connect 14 0 18 0;
#X connect 15 0 27 0;
#X connect 16 0 13 1;
#X connect 17 0 18 0;
#X connect 17 1 14 0;
#X connect 18 0 20 0;
#X connect 19 0 2 0;
#X connect 20 0 9 1;
#X connect 22 0 31 0;
#X connect 23 0 0 0;
#X connect 23 1 22 0;
#X connect 24 0 30 1;
#X connect 25 0 1 0;
#X connect 25 0 4 1;
#X connect 26 0 13 0;
#X connect 27 0 28 0;
#X connect 27 1 16 0;
#X connect 29 0 2 0;
#X connect 30 0 9 0;
#X connect 31 0 0 0;
#X connect 33 0 36 0;
#X connect 34 0 10 0;
#X connect 36 0 30 0;
#X restore 54 178 pd coefLoader;
#X obj 47 243 ambiSpeaker \$0 1;
#X obj 173 243 ambiSpeaker \$0 2;
#X obj 300 243 ambiSpeaker \$0 3;
#X obj 427 243 ambiSpeaker \$0 4;
#X obj 413 87 loadbang;
#X floatatom 413 129 5 0 0 0 - - - 0;
#X obj 393 87 bng 16 250 50 0 empty empty empty 0 -8 0 10 #fcfcfc #000000 #000000;
#X obj 353 51 r chanConfig, f 4;
#X floatatom 353 120 5 0 0 0 - - - 0;
#X obj 378 154 ==;
#X obj 378 175 tgl 16 0 empty empty empty 0 -8 0 10 #fcfcfc #000000 #000000 0 1;
#X obj 378 196 switch~;
#X obj 413 108 \$2;
#X obj 47 268 ambiSpeaker \$0 5;
#X obj 173 268 ambiSpeaker \$0 6;
#X obj 300 268 ambiSpeaker \$0 7;
#X obj 427 268 ambiSpeaker \$0 8;
#X obj 47 293 ambiSpeaker \$0 9;
#X obj 173 293 ambiSpeaker \$0 10;
#X obj 300 293 ambiSpeaker \$0 11;
#X obj 427 293 ambiSpeaker \$0 12;
#X obj 47 318 ambiSpeaker \$0 13;
#X obj 173 318 ambiSpeaker \$0 14;
#X obj 300 318 ambiSpeaker \$0 15;
#X obj 427 318 ambiSpeaker \$0 16;
#X text 188 197 turn on/off with switcher;
#X text 196 7 \$1 = coefficient file name \, \$2 = num speakers;
#X connect 0 0 2 0;
#X connect 1 0 0 0;
#X connect 3 0 0 0;
#X connect 9 0 17 0;
#X connect 10 0 14 1;
#X connect 11 0 17 0;
#X connect 12 0 13 0;
#X connect 13 0 14 0;
#X connect 14 0 15 0;
#X connect 15 0 16 0;
#X connect 17 0 10 0;
