#N canvas 483 691 450 300 12;
#X obj 113 62 inlet~;
#X obj 116 236 outlet~;
#X obj 117 171 *~;
#X obj 180 25 r ambiOrder;
#X obj 263 126 r 1divSqrt5;
#X obj 264 64 r 1divSqrt3;
#X obj 288 169 r 1divSqrt7;
#X obj 200 140 f;
#X obj 237 164 f;
#X obj 274 207 f;
#X obj 180 49 sel 0 1 2 3;
#X msg 159 114 1;
#X floatatom 181 230 5 0 0 0 - - - 0;
#X floatatom 264 88 5 0 0 0 - - - 0;
#X connect 0 0 2 0;
#X connect 2 0 1 0;
#X connect 3 0 10 0;
#X connect 4 0 8 1;
#X connect 5 0 7 1;
#X connect 5 0 13 0;
#X connect 6 0 9 1;
#X connect 7 0 2 1;
#X connect 7 0 12 0;
#X connect 8 0 2 1;
#X connect 8 0 12 0;
#X connect 9 0 2 1;
#X connect 9 0 12 0;
#X connect 10 0 11 0;
#X connect 10 1 7 0;
#X connect 10 2 8 0;
#X connect 10 3 9 0;
#X connect 11 0 2 1;
#X connect 11 0 12 0;
