#N canvas 176 140 821 431 10;
#X obj 26 226 inlet~;
#X text 26 202 signal;
#X text 131 37 azimuth (theta θ);
#X text 554 32 elevation (phi φ);
#N canvas 209 116 693 818 R 0;
#X obj 63 318 throw~ R;
#X obj 60 206 *~;
#X obj 66 16 r~ \$0-signal;
#X obj 64 247 ambiNorm;
#X obj 145 188 r ambiOrder;
#X obj 145 249 tgl 16 0 empty empty empty 0 -8 0 10 #fcfcfc #000000 #000000 0 1;
#X obj 134 292 switch~;
#X obj 64 268 switchRamp;
#X obj 145 228 >= 2;
#N canvas 92 92 450 300 math 0;
#X obj 135 223 outlet~;
#X obj 298 155 block~ 64 1 0.125;
#X obj 141 136 r sqrt5d2;
#X floatatom 141 157 5 0 0 0 - - - 0;
#X obj 102 156 *~;
#X obj 102 135 -~ 1;
#X obj 102 114 *~ 3;
#X obj 102 79 r~ \$0-phiSinSq;
#X connect 2 0 3 0;
#X connect 2 0 4 1;
#X connect 4 0 0 0;
#X connect 5 0 4 0;
#X connect 6 0 5 0;
#X connect 7 0 6 0;
#X restore 94 152 pd math;
#X obj 176 143 loadbang;
#X msg 176 164 2;
#X connect 1 0 3 0;
#X connect 2 0 1 0;
#X connect 3 0 7 0;
#X connect 4 0 8 0;
#X connect 7 0 0 0;
#X connect 7 1 6 0;
#X connect 8 0 5 0;
#X connect 8 0 7 1;
#X connect 9 0 1 1;
#X connect 10 0 11 0;
#X connect 11 0 3 1;
#X restore 113 303 pd R;
#X obj 6 282 s~ \$0-signal;
#N canvas 314 175 688 635 S 0;
#X obj 69 209 *~;
#X obj 66 16 r~ \$0-signal;
#X obj 54 337 throw~ S;
#X obj 59 261 ambiNorm;
#X obj 140 202 r ambiOrder;
#X obj 140 263 tgl 16 0 empty empty empty 0 -8 0 10 #fcfcfc #000000 #000000 0 1;
#X obj 129 306 switch~;
#X obj 59 282 switchRamp;
#X obj 140 242 >= 2;
#N canvas 92 92 450 300 math 0;
#X obj 99 223 outlet~;
#X obj 310 149 block~ 64 1 0.125;
#X obj 158 143 r sqrt15d2;
#X floatatom 158 164 5 0 0 0 - - - 0;
#X obj 96 168 *~;
#X obj 96 147 *~;
#X obj 140 97 r~ \$0-thetaCos;
#X obj 96 76 r~ \$0-2phiSin;
#X connect 2 0 3 0;
#X connect 2 0 4 1;
#X connect 4 0 0 0;
#X connect 5 0 4 0;
#X connect 6 0 5 1;
#X connect 7 0 5 0;
#X restore 103 160 pd math;
#X obj 155 148 loadbang;
#X msg 155 169 2;
#X connect 0 0 3 0;
#X connect 1 0 0 0;
#X connect 3 0 7 0;
#X connect 4 0 8 0;
#X connect 7 0 2 0;
#X connect 7 1 6 0;
#X connect 8 0 5 0;
#X connect 8 0 7 1;
#X connect 9 0 0 1;
#X connect 10 0 11 0;
#X connect 11 0 3 1;
#X restore 113 322 pd S;
#N canvas 153 356 480 381 T 0;
#X obj 65 16 r~ \$0-signal;
#X obj 77 215 *~;
#X obj 76 345 throw~ T;
#X obj 79 281 ambiNorm;
#X obj 160 222 r ambiOrder;
#X obj 160 283 tgl 16 0 empty empty empty 0 -8 0 10 #fcfcfc #000000 #000000 0 1;
#X obj 149 326 switch~;
#X obj 79 302 switchRamp;
#X obj 160 262 >= 2;
#N canvas 92 92 450 300 math 0;
#X obj 135 223 outlet~;
#X obj 310 149 block~ 64 1 0.125;
#X obj 162 139 r sqrt15d2;
#X floatatom 162 160 5 0 0 0 - - - 0;
#X obj 108 168 *~;
#X obj 108 147 *~;
#X obj 133 88 r~ \$0-thetaSin;
#X obj 108 64 r~ \$0-2phiSin;
#X connect 2 0 3 0;
#X connect 2 0 4 1;
#X connect 4 0 0 0;
#X connect 5 0 4 0;
#X connect 6 0 5 1;
#X connect 7 0 5 0;
#X restore 140 162 pd math;
#X obj 139 188 loadbang;
#X msg 139 209 2;
#X connect 0 0 1 0;
#X connect 1 0 3 0;
#X connect 3 0 7 0;
#X connect 4 0 8 0;
#X connect 7 0 2 0;
#X connect 7 1 6 0;
#X connect 8 0 5 0;
#X connect 8 0 7 1;
#X connect 9 0 1 1;
#X connect 10 0 11 0;
#X connect 11 0 3 1;
#X restore 113 341 pd T;
#N canvas 209 435 480 381 U 0;
#X obj 65 16 r~ \$0-signal;
#X obj 78 225 *~;
#X obj 54 337 throw~ U;
#X obj 67 286 ambiNorm;
#X obj 148 227 r ambiOrder;
#X obj 148 288 tgl 16 0 empty empty empty 0 -8 0 10 #fcfcfc #000000 #000000 0 1;
#X obj 137 331 switch~;
#X obj 67 307 switchRamp;
#X obj 148 267 >= 2;
#N canvas 92 92 450 300 math 0;
#X obj 108 241 outlet~;
#X obj 310 149 block~ 64 1 0.125;
#X obj 178 176 r sqrt15d2;
#X floatatom 178 197 5 0 0 0 - - - 0;
#X obj 120 205 *~;
#X obj 120 184 *~;
#X obj 168 128 r~ \$0-2thetaCos;
#X obj 120 63 r~ \$0-phiCosSq;
#X connect 2 0 3 0;
#X connect 2 0 4 1;
#X connect 4 0 0 0;
#X connect 5 0 4 0;
#X connect 6 0 5 1;
#X connect 7 0 5 0;
#X restore 143 161 pd math;
#X obj 139 188 loadbang;
#X msg 139 209 2;
#X connect 0 0 1 0;
#X connect 1 0 3 0;
#X connect 3 0 7 0;
#X connect 4 0 8 0;
#X connect 7 0 2 0;
#X connect 7 1 6 0;
#X connect 8 0 5 0;
#X connect 8 0 7 1;
#X connect 9 0 1 1;
#X connect 10 0 11 0;
#X connect 11 0 3 1;
#X restore 113 360 pd U;
#N canvas 184 433 700 589 V 0;
#X obj 65 16 r~ \$0-signal;
#X obj 63 222 *~;
#X obj 54 337 throw~ V;
#X obj 60 268 ambiNorm;
#X obj 141 209 r ambiOrder;
#X obj 141 270 tgl 16 0 empty empty empty 0 -8 0 10 #fcfcfc #000000 #000000 0 1;
#X obj 130 313 switch~;
#X obj 60 289 switchRamp;
#X obj 141 249 >= 2;
#N canvas 92 92 450 300 math 0;
#X obj 135 223 outlet~;
#X obj 310 149 block~ 64 1 0.125;
#X obj 151 162 r sqrt15d2;
#X floatatom 151 183 5 0 0 0 - - - 0;
#X obj 114 186 *~;
#X obj 114 165 *~;
#X obj 141 101 r~ \$0-2thetaSin;
#X obj 116 73 r~ \$0-phiCosSq;
#X connect 2 0 3 0;
#X connect 2 0 4 1;
#X connect 4 0 0 0;
#X connect 5 0 4 0;
#X connect 6 0 5 1;
#X connect 7 0 5 0;
#X restore 98 154 pd math;
#X obj 163 150 loadbang;
#X msg 163 171 2;
#X connect 0 0 1 0;
#X connect 1 0 3 0;
#X connect 3 0 7 0;
#X connect 4 0 8 0;
#X connect 7 0 2 0;
#X connect 7 1 6 0;
#X connect 8 0 5 0;
#X connect 8 0 7 1;
#X connect 9 0 1 1;
#X connect 10 0 11 0;
#X connect 11 0 3 1;
#X restore 113 379 pd V;
#N canvas 216 607 480 381 W 0;
#X obj 90 67 r~ \$0-signal;
#X obj 92 223 throw~ W;
#X obj 90 199 ambiNorm;
#X obj 182 155 loadbang;
#X msg 182 176 0;
#X connect 0 0 2 0;
#X connect 2 0 1 0;
#X connect 3 0 4 0;
#X connect 4 0 2 1;
#X restore 113 199 pd W;
#N canvas 128 405 480 381 X 0;
#X obj 57 21 r~ \$0-signal;
#X obj 54 228 *~;
#X obj 54 337 throw~ X;
#X obj 51 280 ambiNorm;
#X obj 177 228 r ambiOrder;
#X obj 177 289 tgl 16 0 empty empty empty 0 -8 0 10 #fcfcfc #000000 #000000 0 1;
#X obj 121 325 switch~;
#X obj 51 301 switchRamp;
#X obj 177 268 >= 1;
#N canvas 63 63 450 300 math 0;
#X obj 109 242 outlet~;
#X obj 266 219 block~ 64 1 0.125;
#X obj 146 163 r sqrt3;
#X floatatom 146 184 5 0 0 0 - - - 0;
#X obj 107 76 r~ \$0-phiCos;
#X obj 142 107 r~ \$0-thetaCos;
#X obj 107 156 *~;
#X obj 107 191 *~;
#X connect 2 0 3 0;
#X connect 2 0 7 1;
#X connect 4 0 6 0;
#X connect 5 0 6 1;
#X connect 6 0 7 0;
#X connect 7 0 0 0;
#X restore 78 166 pd math;
#X obj 139 188 loadbang;
#X msg 139 209 1;
#X connect 0 0 1 0;
#X connect 1 0 3 0;
#X connect 3 0 7 0;
#X connect 4 0 8 0;
#X connect 7 0 2 0;
#X connect 7 1 6 0;
#X connect 8 0 5 0;
#X connect 8 0 7 1;
#X connect 9 0 1 1;
#X connect 10 0 11 0;
#X connect 11 0 3 1;
#X restore 113 228 pd X;
#N canvas 186 528 480 381 Y 0;
#X obj 58 21 r~ \$0-signal;
#X obj 72 251 *~;
#X obj 76 355 throw~ Y;
#X obj 75 292 ambiNorm;
#X obj 156 233 r ambiOrder;
#X obj 156 294 tgl 16 0 empty empty empty 0 -8 0 10 #fcfcfc #000000 #000000 0 1;
#X obj 145 337 switch~;
#X obj 75 313 switchRamp;
#X obj 156 273 >= 1;
#N canvas 92 92 450 300 math 0;
#X obj 124 238 outlet~;
#X obj 310 149 block~ 64 1 0.125;
#X obj 160 182 r sqrt3;
#X floatatom 160 203 5 0 0 0 - - - 0;
#X obj 116 207 *~;
#X obj 116 169 *~;
#X obj 118 71 r~ \$0-thetaSin;
#X obj 157 97 r~ \$0-phiCos;
#X connect 2 0 3 0;
#X connect 2 0 4 1;
#X connect 4 0 0 0;
#X connect 5 0 4 0;
#X connect 6 0 5 0;
#X connect 7 0 5 1;
#X restore 144 170 pd math;
#X obj 201 161 loadbang;
#X msg 201 182 1;
#X connect 0 0 1 0;
#X connect 1 0 3 0;
#X connect 3 0 7 0;
#X connect 4 0 8 0;
#X connect 7 0 2 0;
#X connect 7 1 6 0;
#X connect 8 0 5 0;
#X connect 8 0 7 1;
#X connect 9 0 1 1;
#X connect 10 0 11 0;
#X connect 11 0 3 1;
#X restore 113 247 pd Y;
#N canvas 201 526 480 381 Z 0;
#X obj 48 17 r~ \$0-signal;
#X obj 41 192 *~;
#X obj 54 337 throw~ Z;
#X obj 44 219 ambiNorm;
#X obj 130 195 r ambiOrder;
#X obj 130 256 tgl 16 0 empty empty empty 0 -8 0 10 #fcfcfc #000000 #000000 0 1;
#X obj 119 299 switch~;
#X obj 49 275 switchRamp;
#X obj 130 235 >= 1;
#N canvas 92 92 450 300 math 0;
#X obj 135 223 outlet~;
#X obj 310 149 block~ 64 1 0.125;
#X obj 108 110 r sqrt3;
#X obj 74 149 *~;
#X obj 79 68 r~ \$0-phiSin;
#X connect 2 0 3 1;
#X connect 3 0 0 0;
#X connect 4 0 3 0;
#X restore 65 129 pd math;
#X obj 118 154 loadbang;
#X msg 118 175 1;
#X connect 0 0 1 0;
#X connect 1 0 3 0;
#X connect 3 0 7 0;
#X connect 4 0 8 0;
#X connect 7 0 2 0;
#X connect 7 1 6 0;
#X connect 8 0 5 0;
#X connect 8 0 7 1;
#X connect 9 0 1 1;
#X connect 10 0 11 0;
#X connect 11 0 3 1;
#X restore 113 266 pd Z;
#N canvas 197 664 450 300 1OA 0;
#X obj 230 14 r ambiOrder;
#X obj 230 75 tgl 16 0 empty empty empty 0 -8 0 10 #fcfcfc #000000 #000000 0 1;
#X obj 230 54 >= 1;
#X obj 219 150 -~ 0.25;
#X obj 219 173 cos~;
#X obj 276 202 s~ \$0-phiSin;
#X obj 219 208 outlet~;
#X obj 128 171 s~ \$0-phiCos;
#X obj 112 207 outlet~;
#X obj 112 146 cos~;
#X obj 151 40 inlet~;
#X obj 274 80 switch~ 64 1 0.125;
#X connect 0 0 2 0;
#X connect 2 0 1 0;
#X connect 2 0 11 0;
#X connect 3 0 4 0;
#X connect 4 0 5 0;
#X connect 4 0 6 0;
#X connect 9 0 7 0;
#X connect 9 0 8 0;
#X connect 10 0 9 0;
#X connect 10 0 3 0;
#X restore 559 94 pd 1OA;
#N canvas 851 693 450 300 1OA 0;
#X obj 230 14 r ambiOrder;
#X obj 230 75 tgl 16 0 empty empty empty 0 -8 0 10 #fcfcfc #000000 #000000 0 1;
#X obj 230 54 >= 1;
#X obj 74 114 s~ \$0-thetaCos;
#X obj 74 95 cos~;
#X obj 171 62 -~ 0.25;
#X obj 172 114 cos~;
#X obj 172 134 s~ \$0-thetaSin;
#X obj 151 16 inlet~;
#X obj 280 54 switch~ 64 1 0.125;
#X connect 0 0 2 0;
#X connect 2 0 1 0;
#X connect 2 0 9 0;
#X connect 4 0 3 0;
#X connect 5 0 6 0;
#X connect 6 0 7 0;
#X connect 8 0 4 0;
#X connect 8 0 5 0;
#X restore 107 99 pd 1OA;
#N canvas 448 593 753 385 2OA 0;
#X obj 536 -2 r ambiOrder;
#X obj 536 38 >= 2;
#X obj 536 59 tgl 16 0 empty empty empty 0 -8 0 10 #fcfcfc #000000 #000000 0 1;
#X text 157 36 raw;
#X text 278 34 cos;
#X text 116 -26 elevation (phi φ);
#X obj 150 151 s~ \$0-2phiSin;
#X obj 267 165 s~ \$0-phiCosSq;
#X obj 390 180 s~ \$0-phiSinSq;
#X obj 390 159 pow~ 2;
#X obj 267 142 pow~ 2;
#X obj 149 71 -~ 0.25;
#X obj 149 109 cos~;
#X obj 151 -1 inlet~;
#X obj 270 -1 inlet~;
#X obj 386 12 inlet~;
#X obj 572 63 switch~ 64 1 0.125;
#X connect 0 0 1 0;
#X connect 1 0 2 0;
#X connect 1 0 16 0;
#X connect 9 0 8 0;
#X connect 10 0 7 0;
#X connect 11 0 12 0;
#X connect 12 0 6 0;
#X connect 13 0 11 0;
#X connect 14 0 10 0;
#X connect 15 0 9 0;
#X restore 504 127 pd 2OA;
#N canvas 174 556 671 466 2OA 0;
#X obj 230 14 r ambiOrder;
#X obj 230 54 >= 2;
#X obj 230 75 tgl 16 0 empty empty empty 0 -8 0 10 #fcfcfc #000000 #000000 0 1;
#X obj 122 106 *~ 2;
#X obj 227 110 *~ 2;
#X obj 122 150 cos~;
#X obj 227 131 -~ 0.25;
#X obj 227 169 cos~;
#X obj 227 190 s~ \$0-2thetaSin;
#X obj 122 171 s~ \$0-2thetaCos;
#X obj 151 40 inlet~;
#X obj 271 55 switch~ 64 1 0.125;
#X connect 0 0 1 0;
#X connect 1 0 2 0;
#X connect 1 0 11 0;
#X connect 3 0 5 0;
#X connect 4 0 6 0;
#X connect 5 0 9 0;
#X connect 6 0 7 0;
#X connect 7 0 8 0;
#X connect 10 0 3 0;
#X connect 10 0 4 0;
#X restore 172 105 pd 2OA;
#N canvas 665 575 450 300 3OA 0;
#X obj 230 14 r ambiOrder;
#X obj 230 75 tgl 16 0 empty empty empty 0 -8 0 10 #fcfcfc #000000 #000000 0 1;
#X obj 230 54 >= 3;
#X text 79 9 azimuth (theta θ);
#X obj 219 173 s~ \$0-3thetaSin;
#X obj 122 171 s~ \$0-3thetaCos;
#X obj 122 150 cos~;
#X obj 219 152 cos~;
#X obj 219 128 -~ 0.25;
#X obj 151 40 inlet~;
#X obj 122 129 *~ 3;
#X obj 219 107 *~ 3;
#X obj 268 59 switch~ 64 1 0.125;
#X connect 0 0 2 0;
#X connect 2 0 1 0;
#X connect 2 0 12 0;
#X connect 6 0 5 0;
#X connect 7 0 4 0;
#X connect 8 0 7 0;
#X connect 9 0 10 0;
#X connect 9 0 11 0;
#X connect 10 0 6 0;
#X connect 11 0 8 0;
#X restore 226 109 pd 3OA;
#N canvas 518 722 474 300 3OA 0;
#X obj 360 -7 r ambiOrder;
#X obj 360 54 tgl 16 0 empty empty empty 0 -8 0 10 #fcfcfc #000000 #000000 0 1;
#X obj 360 33 >= 3;
#X obj 150 103 pow~ 3;
#X obj 150 124 s~ \$0-phiCosCubed;
#X obj 151 40 inlet~;
#X obj 394 57 switch~ 64 1 0.125;
#X connect 0 0 2 0;
#X connect 2 0 1 0;
#X connect 2 0 6 0;
#X connect 3 0 4 0;
#X connect 5 0 3 0;
#X restore 587 143 pd 3OA;
#N canvas 398 253 499 612 Q 0;
#X obj 53 292 *~;
#X obj 52 317 ambiNorm;
#X obj 57 66 r~ \$0-signal;
#X obj 51 393 throw~ Q;
#X obj 161 259 r ambiOrder;
#X obj 161 320 tgl 16 0 empty empty empty 0 -8 0 10 #fcfcfc #000000 #000000 0 1;
#X obj 161 299 >= 3;
#X obj 122 362 switch~;
#X obj 52 338 switchRamp;
#N canvas 92 92 450 300 math 0;
#X obj 135 223 outlet~;
#X obj 310 149 block~ 64 1 0.125;
#X obj 161 148 r sqrt35d8;
#X obj 130 172 *~;
#X obj 130 151 *~;
#X obj 153 91 r~ \$0-phiCosCubed;
#X obj 131 60 r~ \$0-3thetaSin;
#X connect 2 0 3 1;
#X connect 3 0 0 0;
#X connect 4 0 3 0;
#X connect 5 0 4 1;
#X connect 6 0 4 0;
#X restore 75 224 pd math;
#X obj 139 188 loadbang;
#X msg 139 209 3;
#X connect 0 0 1 0;
#X connect 1 0 8 0;
#X connect 2 0 0 0;
#X connect 4 0 6 0;
#X connect 6 0 5 0;
#X connect 6 0 8 1;
#X connect 8 0 3 0;
#X connect 8 1 7 0;
#X connect 9 0 0 1;
#X connect 10 0 11 0;
#X connect 11 0 1 1;
#X restore 182 203 pd Q;
#N canvas 361 197 499 612 O 0;
#X obj 53 410 *~;
#X obj 52 435 ambiNorm;
#X obj 57 66 r~ \$0-signal;
#X obj 51 540 throw~ O;
#X obj 133 394 r ambiOrder;
#X obj 133 455 tgl 16 0 empty empty empty 0 -8 0 10 #fcfcfc #000000 #000000 0 1;
#X obj 133 434 >= 3;
#X obj 122 498 switch~;
#X obj 52 474 switchRamp;
#N canvas 92 92 450 300 math 0;
#X obj 135 223 outlet~;
#X obj 310 149 block~ 64 1 0.125;
#X obj 173 162 r sqrt105d2;
#X floatatom 187 184 5 0 0 0 - - - 0;
#X obj 134 185 *~;
#X obj 134 164 *~;
#X obj 165 90 r~ \$0-phiSin;
#X obj 138 64 *~;
#X obj 163 3 r~ \$0-2thetaSin;
#X obj 138 -67 r~ \$0-phiCosSq;
#X connect 2 0 3 0;
#X connect 2 0 4 1;
#X connect 4 0 0 0;
#X connect 5 0 4 0;
#X connect 6 0 5 1;
#X connect 7 0 5 0;
#X connect 8 0 7 1;
#X connect 9 0 7 0;
#X restore 74 358 pd math;
#X obj 133 333 loadbang;
#X msg 133 354 3;
#X connect 0 0 1 0;
#X connect 1 0 8 0;
#X connect 2 0 0 0;
#X connect 4 0 6 0;
#X connect 6 0 5 0;
#X connect 6 0 8 1;
#X connect 8 0 3 0;
#X connect 8 1 7 0;
#X connect 9 0 0 1;
#X connect 10 0 11 0;
#X connect 11 0 1 1;
#X restore 182 223 pd O;
#N canvas 373 168 499 612 M 0;
#X obj 53 419 *~;
#X obj 52 444 ambiNorm;
#X obj 57 66 r~ \$0-signal;
#X obj 52 536 throw~ M;
#X obj 135 400 r ambiOrder;
#X obj 135 461 tgl 16 0 empty empty empty 0 -8 0 10 #fcfcfc #000000 #000000 0 1;
#X obj 135 440 >= 3;
#X obj 124 504 switch~;
#X obj 54 480 switchRamp;
#N canvas 92 92 450 300 math 0;
#X obj 135 223 outlet~;
#X obj 310 149 block~ 64 1 0.125;
#X obj 181 136 r sqrt21d8;
#X floatatom 192 156 5 0 0 0 - - - 0;
#X obj 139 157 *~;
#X obj 173 83 r~ \$0-phiCos;
#X obj 139 136 *~;
#X obj 139 78 *~;
#X obj 175 47 r~ \$0-thetaSin;
#X obj 138 29 -~ 1;
#X obj 138 8 *~ 5;
#X obj 138 -13 r~ \$0-phiSinSq;
#X connect 2 0 3 0;
#X connect 2 0 4 1;
#X connect 4 0 0 0;
#X connect 5 0 6 1;
#X connect 6 0 4 0;
#X connect 7 0 6 0;
#X connect 8 0 7 1;
#X connect 9 0 7 0;
#X connect 10 0 9 0;
#X connect 11 0 10 0;
#X restore 76 362 pd math;
#X obj 136 340 loadbang;
#X msg 136 361 3;
#X connect 0 0 1 0;
#X connect 1 0 8 0;
#X connect 2 0 0 0;
#X connect 4 0 6 0;
#X connect 6 0 5 0;
#X connect 6 0 8 1;
#X connect 8 0 3 0;
#X connect 8 1 7 0;
#X connect 9 0 0 1;
#X connect 10 0 11 0;
#X connect 11 0 1 1;
#X restore 182 243 pd M;
#N canvas 325 214 499 612 K 0;
#X obj 53 292 *~;
#X obj 52 317 ambiNorm;
#X obj 57 66 r~ \$0-signal;
#X obj 48 457 throw~ K;
#X obj 133 274 r ambiOrder;
#X obj 133 335 tgl 16 0 empty empty empty 0 -8 0 10 #fcfcfc #000000 #000000 0 1;
#X obj 133 314 >= 3;
#X obj 122 378 switch~;
#X obj 52 354 switchRamp;
#N canvas 92 92 450 300 math 0;
#X obj 135 223 outlet~;
#X obj 310 149 block~ 64 1 0.125;
#X obj 193 152 r sqrt7d2;
#X floatatom 215 174 5 0 0 0 - - - 0;
#X obj 151 172 *~;
#X obj 151 151 *~;
#X obj 191 101 r~ \$0-phiSin;
#X obj 151 111 -~ 3;
#X obj 151 90 *~ 5;
#X obj 151 69 r~ \$0-phiSinSq;
#X connect 2 0 3 0;
#X connect 2 0 4 1;
#X connect 4 0 0 0;
#X connect 5 0 4 0;
#X connect 6 0 5 1;
#X connect 7 0 5 0;
#X connect 8 0 7 0;
#X connect 9 0 8 0;
#X restore 81 241 pd math;
#X obj 139 188 loadbang;
#X msg 139 209 3;
#X connect 0 0 1 0;
#X connect 1 0 8 0;
#X connect 2 0 0 0;
#X connect 4 0 6 0;
#X connect 6 0 5 0;
#X connect 6 0 8 1;
#X connect 8 0 3 0;
#X connect 8 1 7 0;
#X connect 9 0 0 1;
#X connect 10 0 11 0;
#X connect 11 0 1 1;
#X restore 182 263 pd K;
#N canvas 233 132 499 612 L 0;
#X obj 53 356 *~;
#X obj 52 381 ambiNorm;
#X obj 57 66 r~ \$0-signal;
#X obj 52 476 throw~ L;
#X obj 137 335 r ambiOrder;
#X obj 137 396 tgl 16 0 empty empty empty 0 -8 0 10 #fcfcfc #000000 #000000 0 1;
#X obj 137 375 >= 3;
#X obj 126 439 switch~;
#X obj 56 415 switchRamp;
#N canvas 92 92 450 300 math 0;
#X obj 135 223 outlet~;
#X obj 310 149 block~ 64 1 0.125;
#X obj 178 163 r sqrt21d8;
#X floatatom 191 187 5 0 0 0 - - - 0;
#X obj 136 184 *~;
#X obj 136 163 *~;
#X obj 170 110 r~ \$0-phiCos;
#X obj 136 105 *~;
#X obj 175 46 r~ \$0-thetaCos;
#X obj 135 56 -~ 1;
#X obj 135 35 *~ 5;
#X obj 135 14 r~ \$0-phiSinSq;
#X connect 2 0 3 0;
#X connect 2 0 4 1;
#X connect 4 0 0 0;
#X connect 5 0 4 0;
#X connect 6 0 5 1;
#X connect 7 0 5 0;
#X connect 8 0 7 1;
#X connect 9 0 7 0;
#X connect 10 0 9 0;
#X connect 11 0 10 0;
#X restore 77 307 pd math;
#X obj 134 287 loadbang;
#X msg 134 308 3;
#X connect 0 0 1 0;
#X connect 1 0 8 0;
#X connect 2 0 0 0;
#X connect 4 0 6 0;
#X connect 6 0 5 0;
#X connect 6 0 8 1;
#X connect 8 0 3 0;
#X connect 8 1 7 0;
#X connect 9 0 0 1;
#X connect 10 0 11 0;
#X connect 11 0 1 1;
#X restore 182 282 pd L;
#N canvas 414 135 499 612 N 0;
#X obj 64 422 *~;
#X obj 63 447 ambiNorm;
#X obj 57 66 r~ \$0-signal;
#X obj 63 528 throw~ N;
#X obj 152 406 r ambiOrder;
#X obj 152 467 tgl 16 0 empty empty empty 0 -8 0 10 #fcfcfc #000000 #000000 0 1;
#X obj 152 446 >= 3;
#X obj 141 510 switch~;
#X obj 71 486 switchRamp;
#N canvas 92 92 450 300 math 0;
#X obj 135 223 outlet~;
#X obj 310 149 block~ 64 1 0.125;
#X obj 171 162 r sqrt105d2;
#X floatatom 181 185 5 0 0 0 - - - 0;
#X obj 137 180 *~;
#X obj 137 159 *~;
#X obj 163 115 r~ \$0-phiSin;
#X obj 137 76 *~;
#X obj 165 27 r~ \$0-phiCosSq;
#X obj 137 -22 r~ \$0-2thetaCos;
#X connect 2 0 3 0;
#X connect 2 0 4 1;
#X connect 4 0 0 0;
#X connect 5 0 4 0;
#X connect 6 0 5 1;
#X connect 7 0 5 0;
#X connect 8 0 7 1;
#X connect 9 0 7 0;
#X restore 88 371 pd math;
#X obj 155 353 loadbang;
#X msg 155 374 3;
#X connect 0 0 1 0;
#X connect 1 0 8 0;
#X connect 2 0 0 0;
#X connect 4 0 6 0;
#X connect 6 0 5 0;
#X connect 6 0 8 1;
#X connect 8 0 3 0;
#X connect 8 1 7 0;
#X connect 9 0 0 1;
#X connect 10 0 11 0;
#X connect 11 0 1 1;
#X restore 182 302 pd N;
#N canvas 370 195 499 612 P 0;
#X obj 53 292 *~;
#X obj 52 317 ambiNorm;
#X obj 57 66 r~ \$0-signal;
#X obj 52 384 throw~ P;
#X obj 133 258 r ambiOrder;
#X obj 133 319 tgl 16 0 empty empty empty 0 -8 0 10 #fcfcfc #000000 #000000 0 1;
#X obj 133 298 >= 3;
#X obj 122 362 switch~;
#X obj 52 338 switchRamp;
#N canvas 92 92 450 300 math 0;
#X obj 135 223 outlet~;
#X obj 310 149 block~ 64 1 0.125;
#X obj 191 160 r sqrt35d8;
#X floatatom 213 188 5 0 0 0 - - - 0;
#X obj 139 186 *~;
#X obj 139 165 *~;
#X obj 167 116 r~ \$0-phiCosCubed;
#X obj 138 65 r~ \$0-3thetaCos;
#X connect 2 0 3 0;
#X connect 2 0 4 1;
#X connect 4 0 0 0;
#X connect 5 0 4 0;
#X connect 6 0 5 1;
#X connect 7 0 5 0;
#X restore 72 248 pd math;
#X obj 139 188 loadbang;
#X msg 139 209 3;
#X connect 0 0 1 0;
#X connect 1 0 8 0;
#X connect 2 0 0 0;
#X connect 4 0 6 0;
#X connect 6 0 5 0;
#X connect 6 0 8 1;
#X connect 8 0 3 0;
#X connect 8 1 7 0;
#X connect 9 0 0 1;
#X connect 10 0 11 0;
#X connect 11 0 1 1;
#X restore 182 322 pd P;
#X text 172 60 -0.5 to 0.5;
#X text 592 55 -0.25 to 0.25;
#X obj 554 56 inlet~;
#X obj 131 61 inlet~;
#X connect 0 0 5 0;
#X connect 14 0 16 1;
#X connect 14 0 19 0;
#X connect 14 1 16 2;
#X connect 29 0 16 0;
#X connect 29 0 14 0;
#X connect 30 0 15 0;
#X connect 30 0 17 0;
#X connect 30 0 18 0;
