#N canvas 50 432 820 773 10;
#X obj 26 226 inlet~;
#X obj 131 61 inlet;
#X obj 554 56 inlet;
#X text 26 202 signal;
#X obj 74 95 cos;
#X obj 161 114 sin;
#X obj 479 105 cos;
#X obj 565 121 sin;
#X text 131 37 azimuth (theta θ);
#X text 554 32 elevation (phi φ);
#X text 172 60 0-2π;
#X text 592 55 0-1π;
#X obj 656 127 * 2;
#N canvas 252 612 480 381 R 0;
#X obj 63 318 throw~ R;
#X obj 102 54 r \$0-phiSin;
#X obj 97 237 r sqrt5div1;
#X obj 62 273 *~;
#X obj 102 93 pow 2;
#X obj 102 114 * 3;
#X obj 102 135 - 1;
#X obj 102 156 *;
#X obj 60 206 *~;
#X obj 66 16 r~ \$0-signal;
#X obj 141 136 r sqrt5d2;
#X floatatom 97 258 5 0 0 0 - - - 0;
#X floatatom 141 157 5 0 0 0 - - - 0;
#X floatatom 141 76 5 0 0 0 - - - 0;
#X floatatom 138 115 5 0 0 0 - - - 0;
#X connect 1 0 4 0;
#X connect 1 0 13 0;
#X connect 2 0 3 1;
#X connect 2 0 11 0;
#X connect 3 0 0 0;
#X connect 4 0 5 0;
#X connect 4 0 14 0;
#X connect 5 0 6 0;
#X connect 6 0 7 0;
#X connect 7 0 8 1;
#X connect 8 0 3 0;
#X connect 9 0 8 0;
#X connect 10 0 7 1;
#X connect 10 0 12 0;
#X restore 113 203 pd R;
#X obj 74 114 s \$0-thetaCos;
#X obj 161 134 s \$0-thetaSin;
#X obj 479 126 s \$0-phiCos;
#X obj 565 145 s \$0-phiSin;
#X obj 6 282 s~ \$0-signal;
#N canvas 1080 681 480 381 S 0;
#X obj 158 143 r sqrt15d2;
#X obj 140 97 r \$0-thetaCos;
#X obj 88 256 r sqrt5div1;
#X obj 53 292 *~;
#X obj 96 76 r \$0-2phiSin;
#X obj 96 147 *;
#X obj 128 120 t b f;
#X obj 96 168 *;
#X obj 69 209 *~;
#X obj 66 16 r~ \$0-signal;
#X floatatom 178 119 5 0 0 0 - - - 0;
#X floatatom 183 76 5 0 0 0 - - - 0;
#X floatatom 158 164 5 0 0 0 - - - 0;
#X floatatom 88 277 5 0 0 0 - - - 0;
#X obj 54 337 throw~ S;
#X connect 0 0 7 1;
#X connect 0 0 12 0;
#X connect 1 0 6 0;
#X connect 1 0 10 0;
#X connect 2 0 3 1;
#X connect 2 0 13 0;
#X connect 3 0 14 0;
#X connect 4 0 5 0;
#X connect 4 0 11 0;
#X connect 5 0 7 0;
#X connect 6 0 5 0;
#X connect 6 1 5 1;
#X connect 7 0 8 1;
#X connect 8 0 3 0;
#X connect 9 0 8 0;
#X restore 113 222 pd S;
#X obj 655 169 s \$0-2phiSin;
#X obj 656 148 sin;
#N canvas 51 353 480 381 T 0;
#X obj 164 180 r sqrt15d2;
#X obj 133 88 r \$0-thetaSin;
#X obj 88 256 r sqrt5div1;
#X obj 53 292 *~;
#X obj 65 16 r~ \$0-signal;
#X obj 108 64 r \$0-2phiSin;
#X obj 108 147 *;
#X obj 126 113 t b f;
#X obj 108 168 *;
#X obj 77 215 *~;
#X floatatom 164 201 5 0 0 0 - - - 0;
#X floatatom 166 112 5 0 0 0 - - - 0;
#X floatatom 74 86 5 0 0 0 - - - 0;
#X floatatom 88 277 5 0 0 0 - - - 0;
#X obj 54 337 throw~ T;
#X connect 0 0 8 1;
#X connect 0 0 10 0;
#X connect 1 0 7 0;
#X connect 1 0 11 0;
#X connect 2 0 3 1;
#X connect 2 0 13 0;
#X connect 3 0 14 0;
#X connect 4 0 9 0;
#X connect 5 0 6 0;
#X connect 5 0 12 0;
#X connect 6 0 8 0;
#X connect 7 0 6 0;
#X connect 7 1 6 1;
#X connect 8 0 9 1;
#X connect 9 0 3 0;
#X restore 113 241 pd T;
#N canvas 211 641 480 381 U 0;
#X obj 178 176 r sqrt15d2;
#X obj 120 63 r \$0-phiCos;
#X obj 88 256 r sqrt5div1;
#X obj 53 292 *~;
#X obj 65 16 r~ \$0-signal;
#X obj 119 109 pow 2;
#X obj 120 184 *;
#X obj 168 128 r \$0-2thetaCos;
#X obj 144 149 t b f;
#X obj 120 205 *;
#X obj 78 225 *~;
#X floatatom 183 84 5 0 0 0 - - - 0;
#X floatatom 208 149 5 0 0 0 - - - 0;
#X floatatom 178 197 5 0 0 0 - - - 0;
#X floatatom 88 277 5 0 0 0 - - - 0;
#X obj 54 337 throw~ U;
#X connect 0 0 9 1;
#X connect 0 0 13 0;
#X connect 1 0 5 0;
#X connect 1 0 11 0;
#X connect 2 0 3 1;
#X connect 2 0 14 0;
#X connect 3 0 15 0;
#X connect 4 0 10 0;
#X connect 5 0 6 0;
#X connect 6 0 9 0;
#X connect 7 0 8 0;
#X connect 7 0 12 0;
#X connect 8 0 6 0;
#X connect 8 1 6 1;
#X connect 9 0 10 1;
#X connect 10 0 3 0;
#X restore 113 260 pd U;
#X obj 250 133 * 2;
#X obj 250 154 cos;
#X obj 250 175 s \$0-2thetaCos;
#N canvas 102 518 480 381 V 0;
#X obj 151 162 r sqrt15d2;
#X obj 88 256 r sqrt5div1;
#X obj 53 292 *~;
#X obj 65 16 r~ \$0-signal;
#X obj 138 95 r \$0-2thetaSin;
#X obj 98 71 pow 2;
#X obj 114 165 *;
#X obj 112 116 t b f;
#X obj 114 186 *;
#X obj 63 222 *~;
#X floatatom 151 71 5 0 0 0 - - - 0;
#X floatatom 165 116 5 0 0 0 - - - 0;
#X floatatom 151 183 5 0 0 0 - - - 0;
#X floatatom 88 277 5 0 0 0 - - - 0;
#X obj 54 337 throw~ V;
#X obj 115 50 r \$0-phiCos;
#X connect 0 0 8 1;
#X connect 0 0 12 0;
#X connect 1 0 2 1;
#X connect 1 0 13 0;
#X connect 2 0 14 0;
#X connect 3 0 9 0;
#X connect 4 0 7 0;
#X connect 4 0 11 0;
#X connect 5 0 6 0;
#X connect 6 0 8 0;
#X connect 7 0 6 0;
#X connect 7 1 6 1;
#X connect 8 0 9 1;
#X connect 9 0 2 0;
#X connect 15 0 5 0;
#X connect 15 0 10 0;
#X restore 113 279 pd V;
#X obj 345 150 * 2;
#X obj 345 171 sin;
#X obj 345 192 s \$0-2thetaSin;
#N canvas 461 475 480 381 W 0;
#X obj 90 67 r~ \$0-signal;
#X obj 92 223 throw~ W;
#X obj 128 143 r sqrt5div1;
#X obj 93 179 *~;
#X floatatom 128 164 5 0 0 0 - - - 0;
#X connect 0 0 3 0;
#X connect 2 0 3 1;
#X connect 2 0 4 0;
#X connect 3 0 1 0;
#X restore 113 308 pd W;
#N canvas 107 565 480 381 X 0;
#X obj 146 163 r sqrt3;
#X obj 142 107 r \$0-thetaCos;
#X obj 107 76 r \$0-phiCos;
#X obj 53 292 *~;
#X obj 65 16 r~ \$0-signal;
#X obj 107 156 *;
#X obj 142 128 t b f;
#X obj 107 191 *;
#X obj 54 228 *~;
#X floatatom 88 277 5 0 0 0 - - - 0;
#X floatatom 146 184 5 0 0 0 - - - 0;
#X obj 54 337 throw~ X;
#X obj 88 256 r sqrt5div1;
#X connect 0 0 7 1;
#X connect 0 0 10 0;
#X connect 1 0 6 0;
#X connect 2 0 5 0;
#X connect 3 0 11 0;
#X connect 4 0 8 0;
#X connect 5 0 7 0;
#X connect 6 0 5 0;
#X connect 6 1 5 1;
#X connect 7 0 8 1;
#X connect 8 0 3 0;
#X connect 12 0 3 1;
#X connect 12 0 9 0;
#X restore 113 327 pd X;
#N canvas 186 528 480 381 Y 0;
#X obj 160 182 r sqrt3;
#X obj 118 71 r \$0-thetaSin;
#X obj 157 97 r \$0-phiCos;
#X obj 75 292 *~;
#X obj 58 21 r~ \$0-signal;
#X obj 116 169 *;
#X obj 157 118 t b f;
#X obj 116 207 *~;
#X obj 72 251 *~;
#X floatatom 110 277 5 0 0 0 - - - 0;
#X floatatom 160 203 5 0 0 0 - - - 0;
#X obj 76 337 throw~ Y;
#X obj 110 256 r sqrt5div1;
#X connect 0 0 7 1;
#X connect 0 0 10 0;
#X connect 1 0 5 0;
#X connect 2 0 6 0;
#X connect 3 0 11 0;
#X connect 4 0 8 0;
#X connect 5 0 7 0;
#X connect 6 0 5 0;
#X connect 6 1 5 1;
#X connect 7 0 8 1;
#X connect 8 0 3 0;
#X connect 12 0 3 1;
#X connect 12 0 9 0;
#X restore 113 346 pd Y;
#N canvas 201 526 480 381 Z 0;
#X obj 108 110 r sqrt3;
#X obj 79 68 r \$0-phiSin;
#X obj 53 292 *~;
#X obj 65 16 r~ \$0-signal;
#X obj 76 149 *;
#X obj 41 192 *~;
#X floatatom 88 277 5 0 0 0 - - - 0;
#X floatatom 108 131 5 0 0 0 - - - 0;
#X obj 54 337 throw~ Z;
#X obj 88 256 r sqrt5div1;
#X connect 0 0 4 1;
#X connect 0 0 7 0;
#X connect 1 0 4 0;
#X connect 2 0 8 0;
#X connect 3 0 5 0;
#X connect 4 0 5 1;
#X connect 5 0 2 0;
#X connect 9 0 2 1;
#X connect 9 0 6 0;
#X restore 113 365 pd Z;
#X connect 0 0 18 0;
#X connect 1 0 4 0;
#X connect 1 0 5 0;
#X connect 1 0 24 0;
#X connect 1 0 28 0;
#X connect 2 0 6 0;
#X connect 2 0 7 0;
#X connect 2 0 12 0;
#X connect 4 0 14 0;
#X connect 5 0 15 0;
#X connect 6 0 16 0;
#X connect 7 0 17 0;
#X connect 12 0 21 0;
#X connect 21 0 20 0;
#X connect 24 0 25 0;
#X connect 25 0 26 0;
#X connect 28 0 29 0;
#X connect 29 0 30 0;
