#N canvas 864 357 649 577 12;
#X obj 32 270 *~;
#X obj 220 18 loadbang;
#X floatatom 222 82 5 0 0 0 - - - 0;
#X obj 284 14 bng 16 250 50 0 empty empty empty 0 -8 0 10 #fcfcfc #000000 #000000;
#X obj 171 107 r chanConfig;
#X floatatom 171 128 5 0 0 0 - - - 0;
#X obj 170 177 tgl 16 0 empty empty empty 0 -8 0 10 #fcfcfc #000000 #000000 0 1;
#X obj 170 244 switch~;
#X obj 170 156 >=;
#X obj 32 301 dac~ \$1;
#X obj 81 242 r mcLevel;
#X text 24 19 \$1 = speaker #;
#X obj 222 62 \$1;
#X obj 32 174 catch~ speaker\$1;
#X obj 169 410 s vu\$1;
#X obj 168 359 pack f f;
#N canvas 248 230 625 417 vu 0;
#X obj 59 129 env~ 1024;
#X obj 161 111 abs~;
#X obj 161 213 snapshot~;
#X obj 161 256 rmstodb;
#X obj 161 21 inlet~;
#X obj 161 288 - 100;
#X obj 59 287 - 100;
#X obj 59 361 outlet;
#X obj 161 361 outlet;
#X text 344 307 Check the help file of env~ and slop~ for more details., f 31;
#X obj 239 89 expr 1000 / $f1;
#X floatatom 239 117 5 0 0 0 - - - 0;
#X obj 161 146 slop~ 0 0 0 0 1e+09;
#X text 359 89 convert to hz;
#X text 282 118 hz;
#X obj 59 171 t f b;
#X text 345 132 The env~ object is dedicated to RMS analysis. Its output is in dB (0-100 range \, pd style) but needs to be converted to dBFS (and we do that by simply subtracting 100)., f 31;
#X text 345 225 The slop~ object is used here for peak detection. We need to convert the output to dB with rmstodb and also subtract by 100 to convert it to dBFS., f 31;
#X obj 243 26 loadbang;
#X msg 243 50 300;
#X connect 0 0 15 0;
#X connect 1 0 12 0;
#X connect 2 0 3 0;
#X connect 3 0 5 0;
#X connect 4 0 0 0;
#X connect 4 0 1 0;
#X connect 5 0 8 0;
#X connect 6 0 7 0;
#X connect 10 0 11 0;
#X connect 11 0 12 3;
#X connect 12 0 2 0;
#X connect 15 0 6 0;
#X connect 15 1 2 0;
#X connect 18 0 19 0;
#X connect 19 0 10 0;
#X restore 173 326 pd vu;
#X msg 240 363 -100 -100;
#X obj 165 200 t f b;
#X connect 0 0 9 0;
#X connect 0 0 16 0;
#X connect 1 0 12 0;
#X connect 2 0 8 1;
#X connect 3 0 12 0;
#X connect 4 0 5 0;
#X connect 5 0 8 0;
#X connect 6 0 18 0;
#X connect 8 0 6 0;
#X connect 10 0 0 1;
#X connect 12 0 2 0;
#X connect 13 0 0 0;
#X connect 15 0 14 0;
#X connect 16 0 15 0;
#X connect 16 1 15 1;
#X connect 17 0 14 0;
#X connect 18 0 7 0;
#X connect 18 1 17 0;
