#N canvas 671 366 858 614 12;
#X obj 221 104 inlet;
#X obj 230 345 outlet;
#X obj 48 372 outlet~;
#X obj 48 325 *~;
#X obj 165 213 line~;
#X obj 48 118 inlet~;
#X text 285 346 pass to switch~;
#X msg 164 173 \$1 25;
#X obj 261 164 sel 0 1;
#X obj 240 231 del 25;
#X msg 240 255 0;
#X msg 289 255 1;
#X connect 0 0 7 0;
#X connect 0 0 8 0;
#X connect 3 0 2 0;
#X connect 4 0 3 1;
#X connect 5 0 3 0;
#X connect 7 0 4 0;
#X connect 8 0 9 0;
#X connect 8 1 11 0;
#X connect 9 0 10 0;
#X connect 10 0 1 0;
#X connect 11 0 1 0;
