#N canvas 401 99 1208 852 12;
#X declare -path abstractions;
#X obj 122 129 *~;
#X obj 196 72 tgl 19 0 empty empty empty 0 -10 0 12 #fcfcfc #000000 #000000 0 0.3;
#X obj 242 149 hsl 64 19 3.14159 -3.14159 0 0 empty empty empty -2 -10 0 12 #fcfcfc #000000 #000000 0 1;
#X obj 355 119 vsl 19 64 -1.5708 1.5708 0 0 empty empty empty 0 -9 0 12 #fcfcfc #000000 #000000 0 1;
#N canvas 886 675 1294 409 init 0;
#X obj 159 72 loadbang;
#X obj 159 115 sqrt;
#X msg 159 93 3;
#X obj 159 163 s sqrt3;
#X obj 221 140 expr 1 / $f1;
#X msg 36 59 \; pd dsp 1;
#X obj 34 22 loadbang;
#X obj 362 166 s sqrt15d2;
#X obj 362 67 loadbang;
#X obj 362 110 sqrt;
#X msg 362 88 15;
#X obj 362 134 / 2;
#X obj 451 50 loadbang;
#X obj 451 102 sqrt;
#X obj 451 131 / 2;
#X msg 451 75 5;
#X obj 453 189 s sqrt5d2;
#X obj 525 140 expr 1 / $f1;
#X text 172 38 1OA;
#X text 449 16 2OA;
#X obj 706 45 loadbang;
#X obj 706 88 sqrt;
#X obj 766 105 expr 1 / $f1;
#X text 709 20 3OA;
#X msg 706 66 7;
#X obj 706 124 s sqrt7;
#X obj 767 126 s 1divSqrt7;
#X obj 929 77 loadbang;
#X obj 930 101 expr sqrt (35.0 / 8.0);
#X obj 934 156 s sqrt35d8;
#X obj 701 225 loadbang;
#X obj 702 249 expr sqrt (105.0 / 2.0);
#X obj 706 304 s sqrt105d2;
#X obj 909 218 loadbang;
#X obj 910 242 expr sqrt (21.0 / 8.0);
#X obj 914 297 s sqrt21d8;
#X obj 678 145 / 2;
#X obj 678 169 s sqrt7d2;
#X floatatom 116 145 5 0 0 0 - - - 0;
#X floatatom 214 192 5 0 0 0 - - - 0;
#X obj 221 164 s 1divSqrt3;
#X obj 526 161 s 1divSqrt5;
#X obj 903 76 bng 19 250 50 0 empty empty empty 0 -10 0 12 #fcfcfc #000000 #000000;
#X obj 884 219 bng 19 250 50 0 empty empty empty 0 -10 0 12 #fcfcfc #000000 #000000;
#X obj 676 224 bng 19 250 50 0 empty empty empty 0 -10 0 12 #fcfcfc #000000 #000000;
#X connect 0 0 2 0;
#X connect 1 0 3 0;
#X connect 1 0 4 0;
#X connect 1 0 38 0;
#X connect 2 0 1 0;
#X connect 4 0 39 0;
#X connect 4 0 40 0;
#X connect 6 0 5 0;
#X connect 8 0 10 0;
#X connect 9 0 11 0;
#X connect 10 0 9 0;
#X connect 11 0 7 0;
#X connect 12 0 15 0;
#X connect 13 0 14 0;
#X connect 13 0 17 0;
#X connect 14 0 16 0;
#X connect 15 0 13 0;
#X connect 17 0 41 0;
#X connect 20 0 24 0;
#X connect 21 0 22 0;
#X connect 21 0 25 0;
#X connect 21 0 36 0;
#X connect 22 0 26 0;
#X connect 24 0 21 0;
#X connect 27 0 28 0;
#X connect 28 0 29 0;
#X connect 30 0 31 0;
#X connect 31 0 32 0;
#X connect 33 0 34 0;
#X connect 34 0 35 0;
#X connect 36 0 37 0;
#X connect 42 0 28 0;
#X connect 43 0 34 0;
#X connect 44 0 31 0;
#X restore 263 774 pd init;
#N canvas 1190 418 858 706 chanConfig 0;
#X obj 100 123 vradio 23 1 0 4 empty empty empty 0 -10 0 12 #fcfcfc #000000 #000000 0;
#X text 124 125 2;
#X text 124 150 4;
#X text 125 175 8;
#X msg 109 282 2;
#X msg 148 282 4;
#X msg 188 282 8;
#X text 125 198 16/VCCM;
#X msg 226 283 16;
#X obj 163 335 s chanConfig, f 15;
#X obj 139 42 loadbang;
#X obj 246 102 vsl 25 87 0 1 0 0 mcLevel empty empty 0 -9 0 12 #fcfcfc #000000 #000000 0 1;
#X obj 273 110 vu 10 80 vu1 empty -1 -10 0 12 #404040 #000000 0 0;
#X obj 286 110 vu 10 80 vu2 empty -1 -10 0 12 #404040 #000000 0 0;
#X obj 299 110 vu 10 80 vu3 empty -1 -10 0 12 #404040 #000000 0 0;
#X obj 312 110 vu 10 80 vu4 empty -1 -10 0 12 #404040 #000000 0 0;
#X obj 325 110 vu 10 80 vu5 empty -1 -10 0 12 #404040 #000000 0 0;
#X obj 338 110 vu 10 80 vu6 empty -1 -10 0 12 #404040 #000000 0 0;
#X obj 351 110 vu 10 80 vu7 empty -1 -10 0 12 #404040 #000000 0 0;
#X obj 364 110 vu 10 80 vu8 empty -1 -10 0 12 #404040 #000000 0 0;
#X obj 377 110 vu 10 80 vu9 empty -1 -10 0 12 #404040 #000000 0 0;
#X obj 390 110 vu 10 80 vu10 empty -1 -10 0 12 #404040 #000000 0 0;
#X obj 403 110 vu 10 80 vu11 empty -1 -10 0 12 #404040 #000000 0 0;
#X obj 416 110 vu 10 80 vu12 empty -1 -10 0 12 #404040 #000000 0 0;
#X obj 429 110 vu 10 80 vu13 empty -1 -10 0 12 #404040 #000000 0 0;
#X obj 442 110 vu 10 80 vu14 empty -1 -10 0 12 #404040 #000000 0 0;
#X obj 455 110 vu 10 80 vu15 empty -1 -10 0 12 #404040 #000000 0 0;
#X obj 468 110 vu 10 80 vu16 empty -1 -10 0 12 #404040 #000000 0 0;
#X obj 109 245 sel 0 1 2 3 4;
#X msg 257 284 0;
#X obj 192 123 vradio 23 1 0 4 empty empty empty 0 -10 0 12 #fcfcfc #000000 #000000 0;
#X text 186 104 Order;
#X text 217 149 1;
#X text 217 172 2;
#X text 217 195 3;
#X text 217 126 0;
#X text 98 105 Chan;
#X text 240 195 Level;
#X obj 288 242 s ambiOrder;
#X msg 167 67 3;
#X connect 0 0 28 0;
#X connect 4 0 9 0;
#X connect 5 0 9 0;
#X connect 6 0 9 0;
#X connect 8 0 9 0;
#X connect 10 0 0 0;
#X connect 10 0 39 0;
#X connect 28 0 4 0;
#X connect 28 1 5 0;
#X connect 28 2 6 0;
#X connect 28 3 8 0;
#X connect 28 4 29 0;
#X connect 29 0 9 0;
#X connect 30 0 38 0;
#X connect 39 0 30 0;
#X coords 0 -1 1 1 380 115 2 100 100;
#X restore 730 84 pd chanConfig;
#X msg 355 27 0;
#X obj 298 232 cnv 5 5 5 from_XY to_XY empty 4 13 0 14 #000000 #900000 0;
#N canvas 1224 269 517 707 xy 0;
#X msg 176 107 get_pos;
#N canvas 298 421 528 481 from_XY 0;
#X obj 124 136 t f f;
#X obj 110 201 ||;
#X obj 64 137 t f f;
#X obj 110 232 sel 1;
#X obj 155 288 list;
#X obj 64 73 trigger list list;
#X obj 64 107 unpack;
#X obj 128 170 !=;
#X obj 68 171 !=;
#X obj 131 432 outlet;
#X text 193 280 The list is output only if either of the values has changed, f 36;
#X obj 130 350 unpack f f;
#X obj 197 379 -;
#X obj 131 378 -;
#X obj 237 349 unpack f f;
#X obj 131 402 pack f f;
#X listbox 328 351 20 0 0 0 - - - 0;
#X obj 64 22 receive from_XY;
#X obj 237 325 r from_box;
#X listbox 196 431 20 0 0 0 - - - 0;
#X text 164 170 oniy report if different;
#X connect 0 0 7 1;
#X connect 0 1 7 0;
#X connect 1 0 3 0;
#X connect 2 0 8 1;
#X connect 2 1 8 0;
#X connect 3 0 4 0;
#X connect 4 0 11 0;
#X connect 5 0 6 0;
#X connect 5 1 4 1;
#X connect 6 0 2 0;
#X connect 6 1 0 0;
#X connect 7 0 1 1;
#X connect 8 0 1 0;
#X connect 11 0 13 0;
#X connect 11 1 12 0;
#X connect 12 0 15 1;
#X connect 13 0 15 0;
#X connect 14 0 13 1;
#X connect 14 1 12 1;
#X connect 15 0 9 0;
#X connect 15 0 19 0;
#X connect 17 0 5 0;
#X connect 18 0 14 0;
#X connect 18 0 16 0;
#X restore 136 252 pd from_XY;
#X obj 171 -2 loadbang;
#X obj 176 81 metro 100;
#X msg 177 57 1;
#X obj 176 131 s to_XY;
#X msg 136 163 get_pos;
#X obj 136 187 s to_box;
#X obj 170 22 bng 19 250 50 0 empty empty empty 0 -10 0 12 #fcfcfc #000000 #000000;
#N canvas 1129 96 551 926 calc 0;
#X obj 76 99 inlet;
#X obj 76 224 - 12;
#X obj 143 213 moses 13;
#X obj 143 237 - 12;
#X obj 143 261 abs;
#X obj 194 237 - 12;
#X obj 194 261 * -1;
#X floatatom 177 295 5 0 0 0 - - - 0;
#X floatatom 72 403 5 0 0 0 - - - 0;
#X obj 72 329 atan2;
#X obj 76 156 + 3;
#X obj 146 156 + 2;
#X text 175 156 get center of XY box;
#X obj 72 360 * -1;
#X obj 76 123 unpack f f;
#X obj 72 426 outlet;
#X floatatom 72 273 5 0 0 0 - - - 0;
#X text 75 457 radians;
#X connect 0 0 14 0;
#X connect 1 0 16 0;
#X connect 2 0 3 0;
#X connect 2 1 5 0;
#X connect 3 0 4 0;
#X connect 4 0 7 0;
#X connect 5 0 6 0;
#X connect 6 0 7 0;
#X connect 7 0 9 1;
#X connect 8 0 15 0;
#X connect 9 0 13 0;
#X connect 10 0 1 0;
#X connect 11 0 2 0;
#X connect 13 0 8 0;
#X connect 14 0 10 0;
#X connect 14 1 11 0;
#X connect 16 0 9 0;
#X restore 136 276 pd calc;
#X obj 136 300 outlet;
#X text 236 132 ping xy dot;
#X text 202 187 ping boundry square;
#X connect 0 0 5 0;
#X connect 1 0 9 0;
#X connect 2 0 8 0;
#X connect 3 0 0 0;
#X connect 4 0 3 0;
#X connect 6 0 7 0;
#X connect 8 0 4 0;
#X connect 8 0 6 0;
#X connect 9 0 10 0;
#X restore 194 105 pd xy;
#X obj 295 223 cnv 24 1 1 from_box to_box empty 140 160 2 17 #000000 #14e814 0;
#N canvas 609 787 578 270 speakerOut 0;
#X obj 15 15 chanStrMMvu 1;
#X obj 15 39 chanStrMMvu 2;
#X obj 15 63 chanStrMMvu 3;
#X obj 15 87 chanStrMMvu 4;
#X obj 138 15 chanStrMMvu 5;
#X obj 138 39 chanStrMMvu 6;
#X obj 138 63 chanStrMMvu 7;
#X obj 138 87 chanStrMMvu 8;
#X obj 261 16 chanStrMMvu 9;
#X obj 261 40 chanStrMMvu 10;
#X obj 261 64 chanStrMMvu 11;
#X obj 261 88 chanStrMMvu 12;
#X obj 399 16 chanStrMMvu 13;
#X obj 399 40 chanStrMMvu 14;
#X obj 399 64 chanStrMMvu 15;
#X obj 399 88 chanStrMMvu 16;
#X restore 115 680 pd speakerOut;
#X obj 201 2 loadbang;
#X msg 195 39 1;
#X msg 225 40 0;
#X text 880 63 v;
#X text 880 56 |;
#X obj 263 749 declare -path abstractions;
#X text 258 176 xy joystick can move in edit mode, f 12;
#X text 279 500 <-Azimuth: 0 = pan front \, pi/2 = left \, pi = rear \, -pi/2 (or 3pi/2) = right, f 28;
#X text 262 445 <-Elevation: 0 = horizontal \, pi/2 = zenith \, -pi/2 = nadir, f 28;
#N canvas 644 744 1253 258 decoders 0;
#X obj 42 26 catch~ W;
#X obj 237 26 catch~ X;
#X obj 106 26 catch~ Y;
#X obj 171 26 catch~ Z;
#X obj 42 50 s~ ambiW;
#X obj 237 50 s~ ambiX;
#X obj 106 50 s~ ambiY;
#X obj 171 50 s~ ambiZ;
#X obj 43 188 ambiDec Oct 8;
#X obj 43 146 ambiDec Stereo 2;
#X obj 43 167 ambiDec Quad 4;
#X obj 43 210 ambiDec VCCM 16;
#X text 49 0 grab channels + send for decoding;
#X text 40 121 decoders;
#X obj 572 26 catch~ U;
#X obj 311 26 catch~ V;
#X obj 378 26 catch~ T;
#X obj 444 26 catch~ R;
#X obj 508 26 catch~ S;
#X obj 572 51 s~ ambiU;
#X obj 311 51 s~ ambiV;
#X obj 378 51 s~ ambiT;
#X obj 444 51 s~ ambiR;
#X obj 508 51 s~ ambiS;
#X obj 654 26 catch~ Q;
#X obj 654 51 s~ ambiQ;
#X obj 719 26 catch~ O;
#X obj 719 51 s~ ambiO;
#X obj 784 26 catch~ M;
#X obj 784 51 s~ ambiM;
#X obj 847 26 catch~ K;
#X obj 847 51 s~ ambiK;
#X obj 914 26 catch~ L;
#X obj 914 51 s~ ambiL;
#X obj 980 26 catch~ N;
#X obj 980 51 s~ ambiN;
#X obj 1045 26 catch~ P;
#X obj 1045 51 s~ ambiP;
#X connect 0 0 4 0;
#X connect 1 0 5 0;
#X connect 2 0 6 0;
#X connect 3 0 7 0;
#X connect 14 0 19 0;
#X connect 15 0 20 0;
#X connect 16 0 21 0;
#X connect 17 0 22 0;
#X connect 18 0 23 0;
#X connect 24 0 25 0;
#X connect 26 0 27 0;
#X connect 28 0 29 0;
#X connect 30 0 31 0;
#X connect 32 0 33 0;
#X connect 34 0 35 0;
#X connect 36 0 37 0;
#X restore 115 658 pd decoders;
#X text 28 659 decoders ->;
#X obj 463 607 tgl 35 0 record empty empty 0 -10 0 12 #fcfcfc #000000 #000000 0 1;
#X obj 122 95 noise~;
#N canvas 1290 567 758 557 bypassDecoder1 0;
#X msg 12 191 start;
#X msg 86 122 stop;
#X msg 43 150 open -bytes 3 EV.wav, f 11;
#X obj 19 9 r record;
#X obj 19 70 tgl 16 0 empty empty empty 0 -8 0 10 #fcfcfc #000000 #000000 0 1;
#X obj 19 115 t b b;
#X obj 19 92 sel 1 0;
#X obj 135 13 r ambiOrder;
#X obj 136 54 == 1;
#X obj 136 75 switch~;
#X obj 103 238 writesf~ 4;
#X obj 19 30 spigot;
#X obj 172 53 tgl 16 0 empty empty empty 0 -8 0 10 #fcfcfc #000000 #000000 0 1;
#X obj 182 117 chanStrMMvu2 1 W;
#X obj 182 141 chanStrMMvu2 2 Y;
#X obj 182 165 chanStrMMvu2 3 Z;
#X obj 182 189 chanStrMMvu2 4 X;
#X connect 0 0 10 0;
#X connect 1 0 10 0;
#X connect 2 0 10 0;
#X connect 3 0 11 0;
#X connect 4 0 6 0;
#X connect 5 0 0 0;
#X connect 5 1 2 0;
#X connect 6 0 5 0;
#X connect 6 1 1 0;
#X connect 7 0 8 0;
#X connect 8 0 9 0;
#X connect 8 0 11 1;
#X connect 8 0 12 0;
#X connect 11 0 4 0;
#X connect 13 0 10 0;
#X connect 14 0 10 1;
#X connect 15 0 10 2;
#X connect 16 0 10 3;
#X restore 420 672 pd bypassDecoder1;
#N canvas 878 660 758 557 bypassDecoder2 0;
#X msg 12 191 start;
#X msg 86 122 stop;
#X msg 43 150 open -bytes 3 EV.wav, f 11;
#X obj 103 238 writesf~ 9, f 29;
#X obj 19 115 t b b;
#X obj 19 92 sel 1 0;
#X obj 19 9 r record;
#X obj 19 70 tgl 16 0 empty empty empty 0 -8 0 10 #fcfcfc #000000 #000000 0 1;
#X obj 137 25 r ambiOrder;
#X obj 137 82 switch~;
#X obj 19 30 spigot;
#X obj 172 53 tgl 16 0 empty empty empty 0 -8 0 10 #fcfcfc #000000 #000000 0 1;
#X obj 137 54 == 2;
#X obj 182 117 chanStrMMvu2 1 W;
#X obj 182 141 chanStrMMvu2 2 Y;
#X obj 182 165 chanStrMMvu2 3 Z;
#X obj 182 189 chanStrMMvu2 4 X;
#X obj 330 117 chanStrMMvu2 5 V;
#X obj 330 141 chanStrMMvu2 6 T;
#X obj 330 165 chanStrMMvu2 7 R;
#X obj 330 189 chanStrMMvu2 8 S;
#X obj 472 117 chanStrMMvu2 9 U;
#X connect 0 0 3 0;
#X connect 1 0 3 0;
#X connect 2 0 3 0;
#X connect 4 0 0 0;
#X connect 4 1 2 0;
#X connect 5 0 4 0;
#X connect 5 1 1 0;
#X connect 6 0 10 0;
#X connect 7 0 5 0;
#X connect 8 0 12 0;
#X connect 10 0 7 0;
#X connect 12 0 9 0;
#X connect 12 0 10 1;
#X connect 12 0 11 0;
#X connect 13 0 3 0;
#X connect 14 0 3 1;
#X connect 15 0 3 2;
#X connect 16 0 3 3;
#X connect 17 0 3 4;
#X connect 18 0 3 5;
#X connect 19 0 3 6;
#X connect 20 0 3 7;
#X connect 21 0 3 8;
#X restore 420 693 pd bypassDecoder2;
#N canvas 950 567 758 557 bypassDecoder3 0;
#X msg 12 191 start;
#X msg 86 122 stop;
#X msg 43 150 open -bytes 3 EV.wav, f 11;
#X obj 19 115 t b b;
#X obj 19 92 sel 1 0;
#X obj 19 9 r record;
#X obj 19 70 tgl 16 0 empty empty empty 0 -8 0 10 #fcfcfc #000000 #000000 0 1;
#X obj 135 14 r ambiOrder;
#X obj 136 75 switch~;
#X obj 19 30 spigot;
#X obj 171 55 tgl 16 0 empty empty empty 0 -8 0 10 #fcfcfc #000000 #000000 0 1;
#X obj 136 54 == 3;
#X obj 103 238 writesf~ 16, f 57;
#X obj 182 117 chanStrMMvu2 1 W;
#X obj 182 141 chanStrMMvu2 2 Y;
#X obj 182 165 chanStrMMvu2 3 Z;
#X obj 182 189 chanStrMMvu2 4 X;
#X obj 331 116 chanStrMMvu2 5 V;
#X obj 331 140 chanStrMMvu2 6 T;
#X obj 331 164 chanStrMMvu2 7 R;
#X obj 331 188 chanStrMMvu2 8 S;
#X obj 331 212 chanStrMMvu2 9 U;
#X obj 502 68 chanStrMMvu2 10 Q;
#X obj 502 92 chanStrMMvu2 11 O;
#X obj 502 116 chanStrMMvu2 12 M;
#X obj 502 140 chanStrMMvu2 13 K;
#X obj 501 163 chanStrMMvu2 14 L;
#X obj 502 188 chanStrMMvu2 15 N;
#X obj 502 212 chanStrMMvu2 16 P;
#X connect 0 0 12 0;
#X connect 1 0 12 0;
#X connect 2 0 12 0;
#X connect 3 0 0 0;
#X connect 3 1 2 0;
#X connect 4 0 3 0;
#X connect 4 1 1 0;
#X connect 5 0 9 0;
#X connect 6 0 4 0;
#X connect 7 0 11 0;
#X connect 9 0 6 0;
#X connect 11 0 8 0;
#X connect 11 0 9 1;
#X connect 11 0 10 0;
#X connect 13 0 12 0;
#X connect 14 0 12 1;
#X connect 15 0 12 2;
#X connect 16 0 12 3;
#X connect 17 0 12 4;
#X connect 18 0 12 5;
#X connect 19 0 12 6;
#X connect 20 0 12 7;
#X connect 21 0 12 8;
#X connect 22 0 12 9;
#X connect 23 0 12 10;
#X connect 24 0 12 11;
#X connect 25 0 12 12;
#X connect 26 0 12 13;
#X connect 27 0 12 14;
#X connect 28 0 12 15;
#X restore 420 714 pd bypassDecoder3;
#N canvas 1209 567 758 557 bypassDecoder0 0;
#X msg 12 191 start;
#X msg 86 122 stop;
#X msg 43 150 open -bytes 3 EV.wav, f 11;
#X obj 19 9 r record;
#X obj 19 70 tgl 16 0 empty empty empty 0 -8 0 10 #fcfcfc #000000 #000000 0 1;
#X obj 19 115 t b b;
#X obj 19 92 sel 1 0;
#X obj 136 21 r ambiOrder;
#X obj 136 75 switch~;
#X obj 19 30 spigot;
#X obj 179 53 tgl 16 0 empty empty empty 0 -8 0 10 #fcfcfc #000000 #000000 0 1;
#X obj 103 238 writesf~ 1;
#X obj 136 54 == 0;
#X floatatom 203 55 5 0 0 0 - - - 0;
#X obj 182 117 chanStrMMvu2 1 W;
#X connect 0 0 11 0;
#X connect 1 0 11 0;
#X connect 2 0 11 0;
#X connect 3 0 9 0;
#X connect 4 0 6 0;
#X connect 5 0 0 0;
#X connect 5 1 2 0;
#X connect 6 0 5 0;
#X connect 6 1 1 0;
#X connect 7 0 12 0;
#X connect 7 0 13 0;
#X connect 9 0 4 0;
#X connect 12 0 8 0;
#X connect 12 0 9 1;
#X connect 12 0 10 0;
#X connect 14 0 11 0;
#X restore 420 651 pd bypassDecoder0;
#X text 504 616 <-Record un-decoded ambisonic output;
#X obj 682 416 / 6.28319;
#X obj 720 497 / 6.28319;
#X floatatom 730 440 5 0 0 0 - - - 0;
#X floatatom 766 522 5 0 0 0 - - - 0;
#X obj 116 525 ambiNilla3;
#X obj 648 559 ambiNilla3~;
#X text 777 436 <-Elevation: 0 = horizontal \, 0.25 = zenith \, -0.25 = nadir, f 29;
#X obj 122 163 s~ noise;
#X obj 116 358 r~ noise;
#X obj 646 346 r~ noise;
#X obj 235 258 s thetaRadians;
#X obj 356 258 s phiRadians;
#X obj 149 446 r thetaRadians;
#X obj 682 392 r thetaRadians;
#X obj 183 497 r phiRadians;
#X obj 720 472 r phiRadians;
#X floatatom 203 523 5 0 0 0 - - - 0;
#X floatatom 165 469 5 0 0 0 - - - 0;
#X text 813 517 <-Azimuth: 0 = pan front \, 0.25 = left \, 0.5 = rear \, -0.25 = right, f 33;
#X text 251 125 azimuth;
#X text 376 144 elevation;
#X text 30 494 encoder (message rate) ->, f 10;
#X text 573 530 encoder (signal rate) ->, f 9;
#X obj 720 521 sig~;
#X obj 682 521 sig~;
#N canvas 92 92 450 300 switch 0;
#X obj 103 104 vradio 25 1 0 2 empty empty empty 0 -10 0 12 #fcfcfc #000000 #000000 0;
#X text 128 107 msg rate;
#X text 128 132 signal rate;
#X obj 103 79 loadbang;
#X obj 141 185 - 1;
#X obj 141 209 abs;
#X obj 159 247 s msgSwitch;
#X obj 49 234 s sigSwitch;
#X connect 0 0 4 0;
#X connect 0 0 7 0;
#X connect 3 0 0 0;
#X connect 4 0 5 0;
#X connect 5 0 6 0;
#X coords 0 -1 1 1 110 60 2 100 100;
#X restore 501 83 pd switch;
#X obj 646 370 *~;
#X obj 710 346 r sigSwitch;
#X obj 116 406 *~;
#X obj 145 383 r msgSwitch;
#X text 530 749 ambiNilla v.3.5 (c) 2024 Brian Lindgren;
#X text 139 319 ==message rate==;
#X text 657 311 ==signal rate==;
#X text 736 64 v;
#X text 736 57 |;
#X text 880 30 2) increase output level;
#X text 734 22 1) select # of speakers, f 15;
#X text 521 53 v;
#X text 521 46 |;
#X text 521 20 3) choose processing method, f 18;
#X text 491 154 4) move the sound!;
#X text 458 153 <--;
#X connect 0 0 36 0;
#X connect 1 0 0 1;
#X connect 2 0 39 0;
#X connect 3 0 40 0;
#X connect 6 0 3 0;
#X connect 8 0 2 0;
#X connect 11 0 12 0;
#X connect 11 0 13 0;
#X connect 11 0 6 0;
#X connect 12 0 1 0;
#X connect 13 0 2 0;
#X connect 23 0 0 0;
#X connect 29 0 31 0;
#X connect 29 0 53 0;
#X connect 30 0 32 0;
#X connect 30 0 52 0;
#X connect 37 0 57 0;
#X connect 38 0 55 0;
#X connect 41 0 33 1;
#X connect 41 0 46 0;
#X connect 42 0 29 0;
#X connect 43 0 33 2;
#X connect 43 0 45 0;
#X connect 44 0 30 0;
#X connect 52 0 34 2;
#X connect 53 0 34 1;
#X connect 55 0 34 0;
#X connect 56 0 55 1;
#X connect 57 0 33 0;
#X connect 58 0 57 1;
