#N canvas 1024 142 877 496 12;
#X declare -path abstractions;
#X obj 98 159 *~;
#X obj 119 75 tgl 19 0 empty empty empty 0 -10 0 12 #fcfcfc #000000 #000000 0 0.3;
#X obj 164 226 hsl 64 19 3.14159 -3.14159 0 0 empty empty empty -2 -10 0 12 #fcfcfc #000000 #000000 0 1;
#X obj 240 205 vsl 19 64 -1.5708 1.5708 0 0 empty empty empty 0 -9 0 12 #fcfcfc #000000 #000000 0 1;
#N canvas 509 715 621 409 init 0;
#X obj 159 72 loadbang;
#X obj 159 115 sqrt;
#X msg 159 93 3;
#X obj 159 163 s sqrt3;
#X obj 221 140 expr 1 / $f1;
#X obj 221 164 s 1divsqrt3;
#X msg 36 59 \; pd dsp 1;
#X obj 34 22 loadbang;
#X obj 362 166 s sqrt15d2;
#X obj 362 67 loadbang;
#X obj 362 110 sqrt;
#X msg 362 88 15;
#X obj 362 134 / 2;
#X obj 451 50 loadbang;
#X obj 451 102 sqrt;
#X obj 451 131 / 2;
#X msg 451 75 5;
#X obj 453 189 s sqrt5d2;
#X obj 525 140 expr 1 / $f1;
#X obj 526 161 s sqrt5div1;
#X connect 0 0 2 0;
#X connect 1 0 3 0;
#X connect 1 0 4 0;
#X connect 2 0 1 0;
#X connect 4 0 5 0;
#X connect 7 0 6 0;
#X connect 9 0 11 0;
#X connect 10 0 12 0;
#X connect 11 0 10 0;
#X connect 12 0 8 0;
#X connect 13 0 16 0;
#X connect 14 0 15 0;
#X connect 14 0 18 0;
#X connect 15 0 17 0;
#X connect 16 0 14 0;
#X connect 18 0 19 0;
#X restore 98 433 pd init;
#N canvas 1190 418 858 706 chanConfig 0;
#X obj 139 100 vradio 23 1 0 4 empty empty empty 0 -10 0 12 #fcfcfc #000000 #000000 0;
#X text 163 102 2;
#X text 163 127 4;
#X text 164 152 8;
#X msg 109 282 2;
#X msg 148 282 4;
#X msg 188 282 8;
#X text 100 100 Chan:;
#X text 165 175 16/VCCM;
#X msg 226 283 16;
#X obj 163 335 s chanConfig, f 15;
#X obj 139 58 loadbang;
#X obj 228 102 vsl 25 87 0 1 0 0 mcLevel empty empty 0 -9 0 12 #fcfcfc #000000 #000000 0 1;
#X text 181 100 Level:;
#X obj 255 110 vu 10 80 vu1 empty -1 -10 0 12 #404040 #000000 0 0;
#X obj 268 110 vu 10 80 vu2 empty -1 -10 0 12 #404040 #000000 0 0;
#X obj 281 110 vu 10 80 vu3 empty -1 -10 0 12 #404040 #000000 0 0;
#X obj 294 110 vu 10 80 vu4 empty -1 -10 0 12 #404040 #000000 0 0;
#X obj 307 110 vu 10 80 vu5 empty -1 -10 0 12 #404040 #000000 0 0;
#X obj 320 110 vu 10 80 vu6 empty -1 -10 0 12 #404040 #000000 0 0;
#X obj 333 110 vu 10 80 vu7 empty -1 -10 0 12 #404040 #000000 0 0;
#X obj 346 110 vu 10 80 vu8 empty -1 -10 0 12 #404040 #000000 0 0;
#X obj 359 110 vu 10 80 vu9 empty -1 -10 0 12 #404040 #000000 0 0;
#X obj 372 110 vu 10 80 vu10 empty -1 -10 0 12 #404040 #000000 0 0;
#X obj 385 110 vu 10 80 vu11 empty -1 -10 0 12 #404040 #000000 0 0;
#X obj 398 110 vu 10 80 vu12 empty -1 -10 0 12 #404040 #000000 0 0;
#X obj 411 110 vu 10 80 vu13 empty -1 -10 0 12 #404040 #000000 0 0;
#X obj 424 110 vu 10 80 vu14 empty -1 -10 0 12 #404040 #000000 0 0;
#X obj 437 110 vu 10 80 vu15 empty -1 -10 0 12 #404040 #000000 0 0;
#X obj 450 110 vu 10 80 vu16 empty -1 -10 0 12 #404040 #000000 0 0;
#X obj 109 245 sel 0 1 2 3 4;
#X msg 257 284 0;
#X connect 0 0 30 0;
#X connect 4 0 10 0;
#X connect 5 0 10 0;
#X connect 6 0 10 0;
#X connect 9 0 10 0;
#X connect 11 0 0 0;
#X connect 30 0 4 0;
#X connect 30 1 5 0;
#X connect 30 2 6 0;
#X connect 30 3 9 0;
#X connect 30 4 31 0;
#X connect 31 0 10 0;
#X coords 0 -1 1 1 380 115 2 100 100;
#X restore 329 81 pd chanConfig;
#X msg 246 29 0;
#X floatatom 239 289 5 0 0 0 - - - 0;
#X floatatom 198 315 5 0 0 0 - - - 0;
#X obj 206 115 cnv 5 5 5 from_XY to_XY empty 4 13 0 14 #000000 #900000 0;
#N canvas 1096 131 517 707 xy 0;
#X msg 176 107 get_pos;
#N canvas 298 421 528 481 from_XY 0;
#X obj 124 136 t f f;
#X obj 110 201 ||;
#X obj 64 137 t f f;
#X obj 110 232 sel 1;
#X obj 155 288 list;
#X obj 64 73 trigger list list;
#X obj 64 107 unpack;
#X obj 128 170 !=;
#X obj 68 171 !=;
#X obj 131 432 outlet;
#X text 193 280 The list is output only if either of the values has changed, f 36;
#X obj 130 350 unpack f f;
#X obj 197 379 -;
#X obj 131 378 -;
#X obj 237 349 unpack f f;
#X obj 131 402 pack f f;
#X listbox 328 351 20 0 0 0 - - - 0;
#X obj 64 22 receive from_XY;
#X obj 237 325 r from_box;
#X listbox 196 431 20 0 0 0 - - - 0;
#X text 164 170 oniy report if different;
#X connect 0 0 7 1;
#X connect 0 1 7 0;
#X connect 1 0 3 0;
#X connect 2 0 8 1;
#X connect 2 1 8 0;
#X connect 3 0 4 0;
#X connect 4 0 11 0;
#X connect 5 0 6 0;
#X connect 5 1 4 1;
#X connect 6 0 2 0;
#X connect 6 1 0 0;
#X connect 7 0 1 1;
#X connect 8 0 1 0;
#X connect 11 0 13 0;
#X connect 11 1 12 0;
#X connect 12 0 15 1;
#X connect 13 0 15 0;
#X connect 14 0 13 1;
#X connect 14 1 12 1;
#X connect 15 0 9 0;
#X connect 15 0 19 0;
#X connect 17 0 5 0;
#X connect 18 0 14 0;
#X connect 18 0 16 0;
#X restore 136 252 pd from_XY;
#X obj 171 -2 loadbang;
#X obj 176 81 metro 100;
#X msg 177 57 1;
#X obj 176 131 s to_XY;
#X msg 136 163 get_pos;
#X obj 136 187 s to_box;
#X obj 170 22 bng 19 250 50 0 empty empty empty 0 -10 0 12 #fcfcfc #000000 #000000;
#N canvas 1102 96 551 926 calc 0;
#X obj 76 99 inlet;
#X obj 76 224 - 12;
#X obj 143 213 moses 13;
#X obj 143 237 - 12;
#X obj 143 261 abs;
#X obj 194 237 - 12;
#X obj 194 261 * -1;
#X floatatom 177 295 5 0 0 0 - - - 0;
#X floatatom 59 401 5 0 0 0 - - - 0;
#X obj 59 327 atan2;
#X obj 76 156 + 3;
#X obj 146 156 + 2;
#X text 175 156 get center of XY box;
#X obj 78 258 t f f;
#X obj 59 358 * -1;
#X obj 76 123 unpack f f;
#X obj 59 424 outlet;
#X connect 0 0 15 0;
#X connect 1 0 13 0;
#X connect 2 0 3 0;
#X connect 2 1 5 0;
#X connect 3 0 4 0;
#X connect 4 0 7 0;
#X connect 5 0 6 0;
#X connect 6 0 7 0;
#X connect 7 0 9 1;
#X connect 8 0 16 0;
#X connect 9 0 14 0;
#X connect 10 0 1 0;
#X connect 11 0 2 0;
#X connect 13 0 9 0;
#X connect 14 0 8 0;
#X connect 15 0 10 0;
#X connect 15 1 11 0;
#X restore 136 276 pd calc;
#X obj 136 300 outlet;
#X text 236 132 ping xy dot;
#X text 202 187 ping boundry square;
#X connect 0 0 5 0;
#X connect 1 0 9 0;
#X connect 2 0 8 0;
#X connect 3 0 0 0;
#X connect 4 0 3 0;
#X connect 6 0 7 0;
#X connect 8 0 4 0;
#X connect 8 0 6 0;
#X connect 9 0 10 0;
#X restore 175 195 pd xy;
#X obj 195 111 cnv 24 1 1 from_box to_box empty 140 160 2 17 #000000 #14e814 0;
#N canvas 853 482 578 270 speakerOut 0;
#X obj 15 15 chanStrMMvu 1;
#X obj 15 39 chanStrMMvu 2;
#X obj 15 63 chanStrMMvu 3;
#X obj 15 87 chanStrMMvu 4;
#X obj 138 15 chanStrMMvu 5;
#X obj 138 39 chanStrMMvu 6;
#X obj 138 63 chanStrMMvu 7;
#X obj 138 87 chanStrMMvu 8;
#X obj 261 16 chanStrMMvu 9;
#X obj 261 40 chanStrMMvu 10;
#X obj 261 64 chanStrMMvu 11;
#X obj 261 88 chanStrMMvu 12;
#X obj 399 16 chanStrMMvu 13;
#X obj 399 40 chanStrMMvu 14;
#X obj 399 64 chanStrMMvu 15;
#X obj 399 88 chanStrMMvu 16;
#X restore 98 366 pd speakerOut;
#X obj 124 5 loadbang;
#X msg 118 42 1;
#X msg 148 43 0;
#X text 463 28 1) increase output level;
#X text 463 54 v;
#X text 463 47 |;
#X obj 98 411 declare -path abstractions;
#X text 158 64 xy joystick can move in edit mode, f 12;
#X text 248 315 <-Azimuth: 0 = pan front \, pi/2 = left \, pi = rear \, -pi/2 (or 3pi/2) = right, f 74;
#X text 282 287 <-Elevation: 0 = horizontal \, pi/2 = zenith \, -pi/2 = nadir;
#N canvas 98 836 682 258 decoders 0;
#X obj 42 26 catch~ W;
#X obj 107 26 catch~ X;
#X obj 174 26 catch~ Y;
#X obj 239 26 catch~ Z;
#X obj 42 50 s~ ambiW;
#X obj 107 50 s~ ambiX;
#X obj 174 50 s~ ambiY;
#X obj 239 50 s~ ambiZ;
#X obj 43 188 ambiDec Oct 8;
#X obj 43 146 ambiDec Stereo 2;
#X obj 43 167 ambiDec Quad 4;
#X obj 43 210 ambiDec VCCM 16;
#X text 49 0 grab channels + send for decoding;
#X text 40 121 decoders;
#X obj 572 26 catch~ U;
#X obj 311 26 catch~ V;
#X obj 378 26 catch~ T;
#X obj 444 26 catch~ R;
#X obj 508 26 catch~ S;
#X obj 572 51 s~ ambiU;
#X obj 311 51 s~ ambiV;
#X obj 378 51 s~ ambiT;
#X obj 444 51 s~ ambiR;
#X obj 508 51 s~ ambiS;
#X connect 0 0 4 0;
#X connect 1 0 5 0;
#X connect 2 0 6 0;
#X connect 3 0 7 0;
#X connect 14 0 19 0;
#X connect 15 0 20 0;
#X connect 16 0 21 0;
#X connect 17 0 22 0;
#X connect 18 0 23 0;
#X restore 98 344 pd decoders;
#X text 19 302 encoder ->;
#X text 11 345 decoders ->;
#X obj 98 300 ambiNilla2;
#N canvas 711 570 758 554 bypassDecoder 0;
#X msg 12 191 start;
#X msg 86 122 stop;
#X msg 43 150 open -bytes 3 EV.wav, f 11;
#X obj 103 238 writesf~ 9, f 29;
#X obj 19 70 tgl 16 0 empty empty empty 0 -8 0 10 #fcfcfc #000000 #000000 0 1;
#X obj 19 115 t b b;
#X obj 19 92 sel 1 0;
#X obj 16 39 inlet;
#X obj 182 117 chanStrMMvu2 1 W;
#X obj 182 141 chanStrMMvu2 2 Y;
#X obj 182 165 chanStrMMvu2 3 Z;
#X obj 182 189 chanStrMMvu2 4 X;
#X obj 330 117 chanStrMMvu2 5 V;
#X obj 330 141 chanStrMMvu2 6 T;
#X obj 330 165 chanStrMMvu2 7 R;
#X obj 330 189 chanStrMMvu2 8 S;
#X obj 472 118 chanStrMMvu2 9 U;
#X connect 0 0 3 0;
#X connect 1 0 3 0;
#X connect 2 0 3 0;
#X connect 4 0 6 0;
#X connect 5 0 0 0;
#X connect 5 1 2 0;
#X connect 6 0 5 0;
#X connect 6 1 1 0;
#X connect 7 0 4 0;
#X connect 8 0 3 0;
#X connect 9 0 3 1;
#X connect 10 0 3 2;
#X connect 11 0 3 3;
#X connect 12 0 3 4;
#X connect 13 0 3 5;
#X connect 14 0 3 6;
#X connect 15 0 3 7;
#X connect 16 0 3 8;
#X restore 297 411 pd bypassDecoder;
#X obj 297 358 tgl 35 0 empty empty empty 0 -10 0 12 #fcfcfc #000000 #000000 0 1;
#X text 338 367 Record un-decoded ambisonic output;
#X text 365 455 ambiNilla v.2 (c) 2024 Brian Lindgren;
#X obj 45 98 noise~;
#X connect 0 0 26 0;
#X connect 1 0 0 1;
#X connect 2 0 8 0;
#X connect 2 0 26 1;
#X connect 3 0 7 0;
#X connect 3 0 26 2;
#X connect 6 0 3 0;
#X connect 10 0 2 0;
#X connect 13 0 14 0;
#X connect 13 0 15 0;
#X connect 13 0 6 0;
#X connect 14 0 1 0;
#X connect 15 0 2 0;
#X connect 28 0 27 0;
#X connect 31 0 0 0;
